<svg xmlns="http://www.w3.org/2000/svg" width="27" height="33" viewBox="0 0 27 33">
  <g id="Group_11662" data-name="Group 11662" transform="translate(-3379 3770)">
    <rect id="Rectangle_8634" data-name="Rectangle 8634" width="3" height="6" rx="1" transform="translate(3382 -3743)" fill="#abc4e5"/>
    <rect id="Rectangle_8635" data-name="Rectangle 8635" width="3" height="6" rx="1" transform="translate(3400 -3743)" fill="#abc4e5"/>
    <rect id="Rectangle_8628" data-name="Rectangle 8628" width="27" height="31" rx="1" transform="translate(3379 -3770)" fill="#88abda"/>
    <path id="長方形_8628_-_アウトライン" data-name="長方形 8628 - アウトライン" d="M2,2V29H25V2H2M1,0H26a1,1,0,0,1,1,1V30a1,1,0,0,1-1,1H1a1,1,0,0,1-1-1V1A1,1,0,0,1,1,0Z" transform="translate(3379 -3770)" fill="#abc4e5"/>
    <path id="線_1263" data-name="線 1263" d="M23.928.5H0v-1H23.928Z" transform="translate(3380.572 -3762)" fill="#abc4e5"/>
    <rect id="Rectangle_8632" data-name="Rectangle 8632" width="6" height="2" rx="1" transform="translate(3388 -3764) rotate(180)" fill="#abc4e5"/>
    <g id="Group_11634" data-name="Group 11634" transform="translate(3384 -3759.634)">
      <path id="Union_1" data-name="Union 1" d="M6.886,17V14.221a5.808,5.808,0,0,1-1.3-.524L3.631,15.652,1.348,13.369,3.3,11.414a5.836,5.836,0,0,1-.264-.545,5.776,5.776,0,0,1-.26-.756H0V6.886H2.841q.085-.274.2-.54a5.822,5.822,0,0,1,.343-.682L1.348,3.631,3.631,1.348l2.1,2.1q.2-.1.4-.19a5.781,5.781,0,0,1,.755-.26V0h3.228V3.057q.274.085.54.2a5.82,5.82,0,0,1,.545.265l2.17-2.17,2.282,2.283L13.481,5.8a5.821,5.821,0,0,1,.264.545,5.747,5.747,0,0,1,.2.54H17v3.228H14.006a5.739,5.739,0,0,1-.26.756q-.087.206-.189.4l2.1,2.1-2.282,2.282-2.033-2.033a5.81,5.81,0,0,1-.682.343q-.266.112-.54.2V17Z" transform="translate(0 -0.366)" fill="#abc4e5"/>
      <circle id="Ellipse_3" data-name="Ellipse 3" cx="3.053" cy="3.053" r="3.053" transform="translate(5.264 5.264)" fill="#88abda"/>
    </g>
  </g>
</svg>
