<svg xmlns="http://www.w3.org/2000/svg" width="34.157" height="34" viewBox="0 0 34.157 34">
  <g id="Group_11661" data-name="Group 11661" transform="translate(-3271 3812)">
    <rect id="Rectangle_8618" data-name="Rectangle 8618" width="16" height="5" rx="1" transform="translate(3275 -3812)" fill="#abc4e5"/>
    <path id="長方形_8619" data-name="長方形 8619" d="M2,2V29H22V2H2M1,0H23a1,1,0,0,1,1,1V30a1,1,0,0,1-1,1H1a1,1,0,0,1-1-1V1A1,1,0,0,1,1,0Z" transform="translate(3271 -3809)" fill="#abc4e5"/>
    <path id="Union_32" data-name="Union 32" d="M8.692,11.977V9.822H1a1,1,0,0,1-1-1V4.139a1,1,0,0,1,1-1H8.692V.984a1,1,0,0,1,1.715-.7l5.362,5.5a1,1,0,0,1,0,1.4l-5.362,5.5a.977.977,0,0,1-.708.3A1,1,0,0,1,8.692,11.977Z" transform="translate(3289.103 -3805.874)" fill="#abc4e5"/>
    <path id="合体_32_-_アウトライン" data-name="合体 32 - アウトライン" d="M9.692,11.977l5.362-5.5L9.692.984V4.139H1V8.822H9.692v3.155m.008,1a1,1,0,0,1-1.008-1V9.822H1a1,1,0,0,1-1-1V4.139a1,1,0,0,1,1-1H8.692V.984a1,1,0,0,1,1.715-.7l5.362,5.5a1,1,0,0,1,0,1.4l-5.362,5.5A.977.977,0,0,1,9.7,12.979Z" transform="translate(3289.103 -3805.874)" fill="#88abda"/>
    <path id="Union_33" data-name="Union 33" d="M8.692,11.977V9.822H1a1,1,0,0,1-1-1V4.139a1,1,0,0,1,1-1H8.692V.984a1,1,0,0,1,1.715-.7l5.362,5.5a1,1,0,0,1,0,1.4l-5.362,5.5a.977.977,0,0,1-.708.3A1,1,0,0,1,8.692,11.977Z" transform="translate(3304.157 -3783.521) rotate(-180)" fill="#abc4e5"/>
    <path id="合体_33_-_アウトライン" data-name="合体 33 - アウトライン" d="M9.692,11.977l5.362-5.5L9.692.984V4.139H1V8.822H9.692v3.155m.008,1a1,1,0,0,1-1.008-1V9.822H1a1,1,0,0,1-1-1V4.139a1,1,0,0,1,1-1H8.692V.984a1,1,0,0,1,1.715-.7l5.362,5.5a1,1,0,0,1,0,1.4l-5.362,5.5A.977.977,0,0,1,9.7,12.979Z" transform="translate(3304.157 -3783.521) rotate(-180)" fill="#88abda"/>
    <path id="Path_10367" data-name="Path 10367" d="M6237.42-797.4l-9.1,10.028h4.328l-1.365,8.452,4.567-5.21,4.676-5.333-4.346.18Z" transform="translate(-2951.427 -3005.336)" fill="#abc4e5"/>
  </g>
</svg>
