<svg id="Group_11637" data-name="Group 11637" xmlns="http://www.w3.org/2000/svg" width="12.684" height="15.16" viewBox="0 0 12.684 15.16">
  <path id="Path_10503" data-name="Path 10503" d="M144.064,374.3h-.281v-2.085a4.213,4.213,0,0,0-8.427,0V374.3h-.282a1.847,1.847,0,0,0-1.847,1.847v5.167a1.847,1.847,0,0,0,1.847,1.847h8.99a1.847,1.847,0,0,0,1.847-1.847v-5.167A1.847,1.847,0,0,0,144.064,374.3Zm-6.884-2.085a2.389,2.389,0,1,1,4.778,0V374.3H137.18ZM140.1,379.3l.291,1.886h-1.65l.291-1.886a1.314,1.314,0,1,1,1.069,0Z" transform="translate(-133.227 -368)" fill="#fff"/>
</svg>
