<svg xmlns="http://www.w3.org/2000/svg" width="28.552" height="28.552" viewBox="0 0 28.552 28.552">
  <g id="Group_11630" data-name="Group 11630" transform="translate(-3253.157 4272.552)">
    <path id="パス_10505" data-name="パス 10505" d="M3278.985-4282.325h-27.552v-27.552a1,1,0,0,1,1-1,1,1,0,0,1,1,1v25.552h25.552a1,1,0,0,1,1,1A1,1,0,0,1,3278.985-4282.325Z" transform="translate(1.724 38.325)" fill="#fff"/>
    <path id="Rectangle_8614" data-name="Rectangle 8614" d="M1,0H2A1,1,0,0,1,3,1V8A0,0,0,0,1,3,8H0A0,0,0,0,1,0,8V1A1,1,0,0,1,1,0Z" transform="translate(3258 -4253)" fill="#fff"/>
    <path id="Rectangle_8617" data-name="Rectangle 8617" d="M1,0H2A1,1,0,0,1,3,1V11a0,0,0,0,1,0,0H0a0,0,0,0,1,0,0V1A1,1,0,0,1,1,0Z" transform="translate(3275 -4256)" fill="#fff"/>
    <path id="Rectangle_8615" data-name="Rectangle 8615" d="M1,0H2A1,1,0,0,1,3,1V13a0,0,0,0,1,0,0H0a0,0,0,0,1,0,0V1A1,1,0,0,1,1,0Z" transform="translate(3264 -4258)" fill="#fff"/>
    <path id="Rectangle_8616" data-name="Rectangle 8616" d="M1,0H2A1,1,0,0,1,3,1V6A0,0,0,0,1,3,6H0A0,0,0,0,1,0,6V1A1,1,0,0,1,1,0Z" transform="translate(3269 -4251)" fill="#fff"/>
    <circle id="Ellipse_2031" data-name="Ellipse 2031" cx="1.5" cy="1.5" r="1.5" transform="translate(3258 -4259)" fill="#fff"/>
    <circle id="Ellipse_2032" data-name="Ellipse 2032" cx="1.5" cy="1.5" r="1.5" transform="translate(3264 -4270)" fill="#fff"/>
    <circle id="Ellipse_2033" data-name="Ellipse 2033" cx="1.5" cy="1.5" r="1.5" transform="translate(3269 -4263)" fill="#fff"/>
    <circle id="Ellipse_2034" data-name="Ellipse 2034" cx="1.5" cy="1.5" r="1.5" transform="translate(3275 -4266)" fill="#fff"/>
    <path id="パス_10506" data-name="パス 10506" d="M3259.938-4257.26l-.877-.48,6.482-11.824,5.126,7.455,5.6-2.705.435.9-6.373,3.078-4.692-6.823Z" fill="#fff"/>
  </g>
</svg>
