<svg xmlns="http://www.w3.org/2000/svg" width="17.562" height="15.16" viewBox="0 0 17.562 15.16">
  <g id="Group_11642" data-name="Group 11642" transform="translate(0 0)">
    <path id="Path_10503" data-name="Path 10503" d="M144.064,374.3h-.281s-6.491.033-8.708,0a1.847,1.847,0,0,0-1.847,1.847v5.167a1.847,1.847,0,0,0,1.847,1.847h8.99a1.847,1.847,0,0,0,1.847-1.847v-5.167A1.847,1.847,0,0,0,144.064,374.3Zm-3.961,5,.291,1.886h-1.65l.291-1.886a1.314,1.314,0,1,1,1.069,0Z" transform="translate(-133.227 -368)" fill="#b1b1b1"/>
    <path id="Path_10517" data-name="Path 10517" d="M144.064,374.3h-.281v-2.085a4.213,4.213,0,0,0-8.427,0V374.3h8.708Zm-6.884-2.085a2.389,2.389,0,1,1,4.778,0V374.3H137.18Z" transform="translate(-126.569 -368)" fill="#b1b1b1"/>
  </g>
</svg>
