<svg id="Group_577" data-name="Group 577" xmlns="http://www.w3.org/2000/svg" xmlns:xlink="http://www.w3.org/1999/xlink" width="20" height="21" viewBox="0 0 20 21">
  <defs>
    <clipPath id="clip-path">
      <rect id="Rectangle_1485" data-name="Rectangle 1485" width="20" height="21" fill="#fff"/>
    </clipPath>
  </defs>
  <g id="Group_576" data-name="Group 576" clip-path="url(#clip-path)">
    <path id="Path_468" data-name="Path 468" d="M19,21H1a1,1,0,0,1-1-1V1A1,1,0,0,1,2,1V19H19a1,1,0,0,1,0,2" fill="#fff"/>
    <path id="Path_469" data-name="Path 469" d="M6,21H5a1,1,0,0,1-1-1V16a1,1,0,0,1,1-1H6a1,1,0,0,1,1,1v4a1,1,0,0,1-1,1" fill="#fff"/>
    <path id="Path_470" data-name="Path 470" d="M11,21H10a1,1,0,0,1-1-1V14a1,1,0,0,1,1-1h1a1,1,0,0,1,1,1v6a1,1,0,0,1-1,1" fill="#fff"/>
    <path id="Path_471" data-name="Path 471" d="M16,21H15a1,1,0,0,1-1-1V12a1,1,0,0,1,1-1h1a1,1,0,0,1,1,1v8a1,1,0,0,1-1,1" fill="#fff"/>
    <path id="Path_472" data-name="Path 472" d="M10,11a1,1,0,0,1-.625-.219l-5-4A1,1,0,0,1,5.625,5.219l4.3,3.441,5.368-5.367a1,1,0,1,1,1.415,1.414l-6,6A1,1,0,0,1,10,11" fill="#fff"/>
  </g>
</svg>
