<svg xmlns="http://www.w3.org/2000/svg" xmlns:xlink="http://www.w3.org/1999/xlink" width="20.763" height="20.387" viewBox="0 0 20.763 20.387"><defs><filter id="a" x="0" y="0" width="20.763" height="20.387" filterUnits="userSpaceOnUse"><feOffset input="SourceAlpha"/><feGaussianBlur stdDeviation="0.5" result="b"/><feFlood flood-opacity="0.161"/><feComposite operator="in" in2="b"/><feComposite in="SourceGraphic"/></filter><filter id="c" x="2.946" y="6.161" width="4.808" height="4.808" filterUnits="userSpaceOnUse"><feOffset input="SourceAlpha"/><feGaussianBlur stdDeviation="0.5" result="d"/><feFlood flood-opacity="0.161"/><feComposite operator="in" in2="d"/><feComposite in="SourceGraphic"/></filter><filter id="e" x="5.485" y="6.161" width="4.808" height="4.808" filterUnits="userSpaceOnUse"><feOffset input="SourceAlpha"/><feGaussianBlur stdDeviation="0.5" result="f"/><feFlood flood-opacity="0.161"/><feComposite operator="in" in2="f"/><feComposite in="SourceGraphic"/></filter><filter id="g" x="8.024" y="6.161" width="4.808" height="4.808" filterUnits="userSpaceOnUse"><feOffset input="SourceAlpha"/><feGaussianBlur stdDeviation="0.5" result="h"/><feFlood flood-opacity="0.161"/><feComposite operator="in" in2="h"/><feComposite in="SourceGraphic"/></filter><filter id="i" x="10.564" y="6.161" width="4.808" height="4.808" filterUnits="userSpaceOnUse"><feOffset input="SourceAlpha"/><feGaussianBlur stdDeviation="0.5" result="j"/><feFlood flood-opacity="0.161"/><feComposite operator="in" in2="j"/><feComposite in="SourceGraphic"/></filter><filter id="k" x="13.103" y="6.161" width="4.808" height="4.808" filterUnits="userSpaceOnUse"><feOffset input="SourceAlpha"/><feGaussianBlur stdDeviation="0.5" result="l"/><feFlood flood-opacity="0.161"/><feComposite operator="in" in2="l"/><feComposite in="SourceGraphic"/></filter><filter id="m" x="2.946" y="9.432" width="4.808" height="4.808" filterUnits="userSpaceOnUse"><feOffset input="SourceAlpha"/><feGaussianBlur stdDeviation="0.5" result="n"/><feFlood flood-opacity="0.161"/><feComposite operator="in" in2="n"/><feComposite in="SourceGraphic"/></filter><filter id="o" x="5.485" y="9.432" width="4.808" height="4.808" filterUnits="userSpaceOnUse"><feOffset input="SourceAlpha"/><feGaussianBlur stdDeviation="0.5" result="p"/><feFlood flood-opacity="0.161"/><feComposite operator="in" in2="p"/><feComposite in="SourceGraphic"/></filter><filter id="q" x="8.024" y="9.432" width="4.808" height="4.808" filterUnits="userSpaceOnUse"><feOffset input="SourceAlpha"/><feGaussianBlur stdDeviation="0.5" result="r"/><feFlood flood-opacity="0.161"/><feComposite operator="in" in2="r"/><feComposite in="SourceGraphic"/></filter><filter id="s" x="10.564" y="9.432" width="4.808" height="4.808" filterUnits="userSpaceOnUse"><feOffset input="SourceAlpha"/><feGaussianBlur stdDeviation="0.5" result="t"/><feFlood flood-opacity="0.161"/><feComposite operator="in" in2="t"/><feComposite in="SourceGraphic"/></filter><filter id="u" x="13.103" y="9.432" width="4.808" height="4.808" filterUnits="userSpaceOnUse"><feOffset input="SourceAlpha"/><feGaussianBlur stdDeviation="0.5" result="v"/><feFlood flood-opacity="0.161"/><feComposite operator="in" in2="v"/><feComposite in="SourceGraphic"/></filter><filter id="w" x="2.946" y="12.703" width="4.808" height="4.808" filterUnits="userSpaceOnUse"><feOffset input="SourceAlpha"/><feGaussianBlur stdDeviation="0.5" result="x"/><feFlood flood-opacity="0.161"/><feComposite operator="in" in2="x"/><feComposite in="SourceGraphic"/></filter><filter id="y" x="5.485" y="12.703" width="4.808" height="4.808" filterUnits="userSpaceOnUse"><feOffset input="SourceAlpha"/><feGaussianBlur stdDeviation="0.5" result="z"/><feFlood flood-opacity="0.161"/><feComposite operator="in" in2="z"/><feComposite in="SourceGraphic"/></filter><filter id="aa" x="8.024" y="12.703" width="4.808" height="4.808" filterUnits="userSpaceOnUse"><feOffset input="SourceAlpha"/><feGaussianBlur stdDeviation="0.5" result="ab"/><feFlood flood-opacity="0.161"/><feComposite operator="in" in2="ab"/><feComposite in="SourceGraphic"/></filter><filter id="ac" x="10.564" y="12.703" width="4.808" height="4.808" filterUnits="userSpaceOnUse"><feOffset input="SourceAlpha"/><feGaussianBlur stdDeviation="0.5" result="ad"/><feFlood flood-opacity="0.161"/><feComposite operator="in" in2="ad"/><feComposite in="SourceGraphic"/></filter><filter id="ae" x="13.103" y="12.703" width="4.808" height="4.808" filterUnits="userSpaceOnUse"><feOffset input="SourceAlpha"/><feGaussianBlur stdDeviation="0.5" result="af"/><feFlood flood-opacity="0.161"/><feComposite operator="in" in2="af"/><feComposite in="SourceGraphic"/></filter></defs><g transform="translate(-781.166 -250.166)"><g transform="translate(782.666 251.666)"><g transform="matrix(1, 0, 0, 1, -1.5, -1.5)" filter="url(#a)"><path d="M799.9,269.053H783.2a.532.532,0,0,1-.532-.532V252.2a.532.532,0,0,1,.532-.532h16.7a.532.532,0,0,1,.532.532v16.324A.532.532,0,0,1,799.9,269.053Zm-16.167-1.064h15.636v-15.26H783.729Z" transform="translate(-781.17 -250.17)" fill="#b2c9f4"/></g></g><g transform="translate(782.932 251.932)"><rect width="16.699" height="3.19" transform="translate(0.266 0.266)" fill="#b2c9f4"/><path d="M801.048,256.8h-16.7a.266.266,0,0,1-.266-.266v-3.19a.266.266,0,0,1,.266-.266h16.7a.266.266,0,0,1,.266.266v3.19A.266.266,0,0,1,801.048,256.8Zm-16.433-.532h16.167v-2.658H784.615Z" transform="translate(-784.083 -253.083)" fill="#b2c9f4"/></g><circle cx="0.657" cy="0.657" r="0.657" transform="translate(790.984 253.23)" fill="#6180ab"/><g transform="translate(785.612 257.827)"><g transform="translate(0 0)"><g transform="matrix(1, 0, 0, 1, -4.45, -7.66)" filter="url(#c)"><rect width="1.808" height="1.808" transform="translate(4.45 7.66)" fill="#b2c9f4"/></g><g transform="matrix(1, 0, 0, 1, -4.45, -7.66)" filter="url(#e)"><rect width="1.808" height="1.808" transform="translate(6.99 9.47) rotate(-90)" fill="#b2c9f4"/></g><g transform="matrix(1, 0, 0, 1, -4.45, -7.66)" filter="url(#g)"><rect width="1.808" height="1.808" transform="translate(9.52 9.47) rotate(-90)" fill="#b2c9f4"/></g><g transform="matrix(1, 0, 0, 1, -4.45, -7.66)" filter="url(#i)"><rect width="1.808" height="1.808" transform="translate(12.06 9.47) rotate(-90)" fill="#b2c9f4"/></g><g transform="matrix(1, 0, 0, 1, -4.45, -7.66)" filter="url(#k)"><rect width="1.808" height="1.808" transform="translate(14.6 9.47) rotate(-90)" fill="#b2c9f4"/></g></g><g transform="translate(0 3.271)"><g transform="matrix(1, 0, 0, 1, -4.45, -10.93)" filter="url(#m)"><rect width="1.808" height="1.808" transform="translate(4.45 10.93)" fill="#b2c9f4"/></g><g transform="matrix(1, 0, 0, 1, -4.45, -10.93)" filter="url(#o)"><rect width="1.808" height="1.808" transform="translate(6.99 12.74) rotate(-90)" fill="#b2c9f4"/></g><g transform="matrix(1, 0, 0, 1, -4.45, -10.93)" filter="url(#q)"><rect width="1.808" height="1.808" transform="translate(9.52 12.74) rotate(-90)" fill="#b2c9f4"/></g><g transform="matrix(1, 0, 0, 1, -4.45, -10.93)" filter="url(#s)"><rect width="1.808" height="1.808" transform="translate(12.06 12.74) rotate(-90)" fill="#b2c9f4"/></g><g transform="matrix(1, 0, 0, 1, -4.45, -10.93)" filter="url(#u)"><rect width="1.808" height="1.808" transform="translate(14.6 12.74) rotate(-90)" fill="#b2c9f4"/></g></g><g transform="translate(0 6.542)"><g transform="matrix(1, 0, 0, 1, -4.45, -14.2)" filter="url(#w)"><rect width="1.808" height="1.808" transform="translate(4.45 14.2)" fill="#b2c9f4"/></g><g transform="matrix(1, 0, 0, 1, -4.45, -14.2)" filter="url(#y)"><rect width="1.808" height="1.808" transform="translate(6.99 16.01) rotate(-90)" fill="#b2c9f4"/></g><g transform="matrix(1, 0, 0, 1, -4.45, -14.2)" filter="url(#aa)"><rect width="1.808" height="1.808" transform="translate(9.52 16.01) rotate(-90)" fill="#b2c9f4"/></g><g transform="matrix(1, 0, 0, 1, -4.45, -14.2)" filter="url(#ac)"><rect width="1.808" height="1.808" transform="translate(12.06 16.01) rotate(-90)" fill="#b2c9f4"/></g><g transform="matrix(1, 0, 0, 1, -4.45, -14.2)" filter="url(#ae)"><rect width="1.808" height="1.808" transform="translate(14.6 16.01) rotate(-90)" fill="#b2c9f4"/></g></g></g></g></svg>