<svg xmlns="http://www.w3.org/2000/svg" xmlns:xlink="http://www.w3.org/1999/xlink" width="158.212" height="31" viewBox="0 0 158.212 31">
  <defs>
    <filter id="パス_5322" x="0" y="0" width="158.212" height="31" filterUnits="userSpaceOnUse">
      <feOffset dy="1" input="SourceAlpha"/>
      <feGaussianBlur stdDeviation="1" result="blur"/>
      <feFlood flood-color="#e4e7f1"/>
      <feComposite operator="in" in2="blur"/>
      <feComposite in="SourceGraphic"/>
    </filter>
  </defs>
  <g id="グループ_9857" data-name="グループ 9857" transform="translate(-1179.788 -167)">
    <g transform="matrix(1, 0, 0, 1, 1179.79, 167)" filter="url(#パス_5322)">
      <g id="パス_5322-2" data-name="パス 5322" transform="translate(-36 2)" fill="#fff">
        <path d="M 178.71240234375 24.5 L 51.5 24.5 C 48.29468154907227 24.5 45.28121948242188 23.25177955627441 43.01472091674805 20.98527908325195 C 40.74822235107422 18.71878051757812 39.5 15.70532035827637 39.5 12.5 C 39.5 9.294679641723633 40.74822235107422 6.281219959259033 43.01472091674805 4.01471996307373 C 45.28121948242188 1.748219966888428 48.29468154907227 0.5 51.5 0.5 L 178.71240234375 0.5 C 181.917724609375 0.5 184.9311828613281 1.748219966888428 187.1976776123047 4.01471996307373 C 189.4641876220703 6.281219959259033 190.71240234375 9.294679641723633 190.71240234375 12.5 C 190.71240234375 15.70532035827637 189.4641876220703 18.71878051757812 187.1976776123047 20.98527908325195 C 184.9311828613281 23.25177955627441 181.917724609375 24.5 178.71240234375 24.5 Z" stroke="none"/>
        <path d="M 51.5 1 C 48.42823791503906 1 45.54034423828125 2.196199417114258 43.3682861328125 4.368280410766602 C 41.19619750976562 6.540340423583984 40 9.428239822387695 40 12.5 C 40 15.5717601776123 41.19619750976562 18.45965957641602 43.3682861328125 20.6317195892334 C 45.54034423828125 22.80380058288574 48.42823791503906 24 51.5 24 L 178.71240234375 24 C 181.7841644287109 24 184.6720581054688 22.80380058288574 186.8441162109375 20.6317195892334 C 189.0162048339844 18.45965957641602 190.21240234375 15.5717601776123 190.21240234375 12.5 C 190.21240234375 9.428239822387695 189.0162048339844 6.540340423583984 186.8441162109375 4.368280410766602 C 184.6720581054688 2.196199417114258 181.7841644287109 1 178.71240234375 1 L 51.5 1 M 51.5 0 L 178.71240234375 0 C 185.615966796875 0 191.21240234375 5.596439361572266 191.21240234375 12.5 C 191.21240234375 19.40356063842773 185.615966796875 25 178.71240234375 25 L 51.5 25 C 44.596435546875 25 39 19.40356063842773 39 12.5 C 39 5.596439361572266 44.596435546875 0 51.5 0 Z" stroke="none" fill="#547096"/>
      </g>
    </g>
    <g id="グループ_9855" data-name="グループ 9855" transform="translate(-7.578 0.703)">
      <text id="CSVダウンロード" transform="translate(1209.894 186)" fill="#547096" font-size="12" font-family="HiraginoSans-W3, Hiragino Sans"><tspan x="0" y="0">CSVダウンロード</tspan></text>
      <g id="グループ_9854" data-name="グループ 9854" transform="translate(-35 1.78)">
        <path id="合体_1" data-name="合体 1" d="M3.005,11.218.464,9.278a1,1,0,0,1,.607-1.8H2.612V1a1,1,0,1,1,2,0V7.483H6.152a1,1,0,0,1,.608,1.8L4.218,11.218a1,1,0,0,1-1.213,0Z" transform="translate(1348.881 172.219)" fill="#547096"/>
        <path id="パス_7961" data-name="パス 7961" d="M-7340.9-11520.244v2.227h11.118v-2.227" transform="translate(8687.836 11703.831)" fill="none" stroke="#547096" stroke-width="1"/>
      </g>
    </g>
  </g>
</svg>
