<svg xmlns="http://www.w3.org/2000/svg" width="19.897" height="20.987" viewBox="0 0 19.897 20.987">
  <g id="Group_581" data-name="Group 581" transform="translate(-223 -25.001)">
    <g id="Group_580" data-name="Group 580">
      <path id="Path_466" data-name="Path 466" d="M17.1,20.987H3.1a1,1,0,0,1-1-1v-8.5H1A1,1,0,0,1,.272,9.8L9.22.3a1.033,1.033,0,0,1,1.457,0l8.948,9.5a1,1,0,0,1-.728,1.686h-.8v8.5a1,1,0,0,1-1,1m-13-2h12v-8.5a1,1,0,0,1,.571-.9L9.948,2.445,3.3,9.507a1,1,0,0,1,.8.98Z" transform="translate(223 25)" fill="#222"/>
    </g>
    <path id="Path_467" data-name="Path 467" d="M13.1,20.987h-6a1,1,0,0,1-1-1v-7a1,1,0,0,1,1-1h6a1,1,0,0,1,1,1v7a1,1,0,0,1-1,1m-5-2h4v-5h-4Z" transform="translate(223 25)" fill="#222"/>
  </g>
</svg>
