<svg xmlns="http://www.w3.org/2000/svg" xmlns:xlink="http://www.w3.org/1999/xlink" width="23.654" height="21.78" viewBox="0 0 23.654 21.78"><defs><filter id="a" x="0" y="0" width="23.654" height="21.78" filterUnits="userSpaceOnUse"><feOffset input="SourceAlpha"/><feGaussianBlur stdDeviation="0.5" result="b"/><feFlood flood-opacity="0.161"/><feComposite operator="in" in2="b"/><feComposite in="SourceGraphic"/></filter></defs><g transform="matrix(1, 0, 0, 1, 0, 0)" filter="url(#a)"><path d="M576.768,270.945H572.26a.581.581,0,0,1-.58-.581v-2.254a1.878,1.878,0,0,0-3.756,0v2.254a.581.581,0,0,1-.581.581h-4.712a.581.581,0,0,1-.581-.581v-8.229h-2.025a.581.581,0,0,1-.39-1.011l9.746-8.809a.58.58,0,0,1,.779,0l9.746,8.809a.581.581,0,0,1-.389,1.011h-2.17v8.229A.581.581,0,0,1,576.768,270.945Zm-3.927-1.161h3.346v-8.229a.581.581,0,0,1,.581-.581h1.242l-8.238-7.446-8.238,7.446h1.1a.581.581,0,0,1,.581.581v8.229h3.551v-1.673a3.039,3.039,0,1,1,6.078,0Z" transform="translate(-557.94 -250.67)" fill="#b2c9f4"/></g></svg>