<svg xmlns="http://www.w3.org/2000/svg" xmlns:xlink="http://www.w3.org/1999/xlink" width="32" height="32" viewBox="0 0 32 32"><defs><clipPath id="a"><rect width="32" height="32" fill="none"/></clipPath></defs><g clip-path="url(#a)"><path d="M81.063,47.318c0-.014,0-.027,0-.041s0-.019,0-.03a.81.81,0,0,0-.1-.286c-.007-.014-.015-.027-.024-.04a.148.148,0,0,0-.018-.027c-.005-.007-.011-.016-.017-.024a.555.555,0,0,0-.05-.062l-.028-.029-.029-.028a.894.894,0,0,0-.094-.074c-.007-.006-.016-.011-.024-.016l-.011-.006-8.474-5.313a.834.834,0,0,0-.889,0l-8.473,5.313-.011.006c-.007.005-.016.01-.024.016l-.033.024c-.02.015-.042.032-.061.049a.737.737,0,0,0-.058.058.972.972,0,0,0-.086.112c-.01.015-.018.03-.027.045l-.022.043s0,0,0,0-.015.032-.021.048-.013.033-.018.049a.749.749,0,0,0-.032.137c0,.011,0,.02,0,.03s0,.027,0,.041,0,.035,0,.053V58.239a.837.837,0,0,0,.393.708L71.3,64.268a.813.813,0,0,0,.281.11l.039.007.032,0a.813.813,0,0,0,.186,0l.032,0,.039-.007a.816.816,0,0,0,.28-.11l8.485-5.321a.836.836,0,0,0,.392-.708V47.371c0-.018,0-.036,0-.053M71.016,62.341l-7.132-4.351v-9.24l7.132,4.472Zm.821-10.48-.091.058-.091-.058-7.043-4.489,7.134-4.546,7.124,4.546Zm7.771,6.129-7.132,4.351V53.222l7.132-4.472Z" transform="translate(-55.745 -36.805)" fill="#e5e5e5"/><path d="M232.208,7.937a.632.632,0,0,1-.632-.632V1.264h-6.041a.632.632,0,0,1,0-1.264h6.673a.632.632,0,0,1,.632.632V7.3a.632.632,0,0,1-.632.632" transform="translate(-200.84)" fill="#e5e5e5"/><path d="M.632,7.937A.632.632,0,0,1,0,7.3V.632A.632.632,0,0,1,.632,0H7.3a.632.632,0,0,1,0,1.264H1.264V7.3a.632.632,0,0,1-.632.632" fill="#e5e5e5"/><path d="M7.3,232.839H.632A.632.632,0,0,1,0,232.207v-6.673a.632.632,0,1,1,1.264,0v6.041H7.3a.632.632,0,0,1,0,1.264" transform="translate(0 -200.839)" fill="#e5e5e5"/><path d="M232.208,232.839h-6.673a.632.632,0,0,1,0-1.264h6.041v-6.041a.632.632,0,1,1,1.264,0v6.673a.632.632,0,0,1-.632.632" transform="translate(-200.84 -200.839)" fill="#e5e5e5"/></g></svg>