<svg id="Group_896" data-name="Group 896" xmlns="http://www.w3.org/2000/svg" xmlns:xlink="http://www.w3.org/1999/xlink" width="32" height="34.79" viewBox="0 0 32 34.79">
  <defs>
    <clipPath id="clip-path">
      <rect id="Rectangle_1628" data-name="Rectangle 1628" width="32" height="34.79" fill="none"/>
    </clipPath>
  </defs>
  <g id="Group_857" data-name="Group 857" clip-path="url(#clip-path)">
    <path id="Path_648" data-name="Path 648" d="M29.711,19.234l-.944-.72c.025-.629.025-1.935,0-2.564l.944-.719a.442.442,0,0,0,.148-.5,5.041,5.041,0,0,0-1.045-1.813.439.439,0,0,0-.508-.122l-1.094.457c-.533-.335-1.666-.989-2.222-1.283l-.151-1.177a.442.442,0,0,0-.36-.379,5.065,5.065,0,0,0-2.093,0,.442.442,0,0,0-.359.379l-.151,1.177c-.556.293-1.689.946-2.221,1.282l-1.094-.459a.452.452,0,0,0-.512.128A5.015,5.015,0,0,0,17,14.73a.441.441,0,0,0,.148.5l.944.719c-.025.629-.025,1.936,0,2.564l-.944.72a.441.441,0,0,0-.148.5,5.045,5.045,0,0,0,1.045,1.814.441.441,0,0,0,.507.122l1.1-.457c.533.335,1.665.989,2.222,1.283l.151,1.177a.441.441,0,0,0,.36.379,5.086,5.086,0,0,0,2.092,0,.443.443,0,0,0,.36-.379l.151-1.177c.556-.293,1.687-.946,2.22-1.282l1.1.457a.454.454,0,0,0,.514-.129,4.987,4.987,0,0,0,.613-.844,5.078,5.078,0,0,0,.427-.961.442.442,0,0,0-.148-.5m-.662,1.241a4.619,4.619,0,0,1-.574.787l-1.305-.546c-.083.089-2.473,1.468-2.59,1.495l-.181,1.4a4.619,4.619,0,0,1-1.936,0l-.179-1.4c-.117-.027-2.509-1.408-2.591-1.5l-1.306.546a4.632,4.632,0,0,1-.967-1.679l1.127-.858c-.036-.114-.036-2.875,0-2.99L17.42,14.88a4.56,4.56,0,0,1,.969-1.677l1.305.546c.082-.089,2.473-1.468,2.59-1.495l.179-1.4a4.619,4.619,0,0,1,1.936,0l.181,1.4c.117.027,2.509,1.408,2.591,1.5l1.305-.546a4.6,4.6,0,0,1,.967,1.679l-1.126.858c.035.114.036,2.875,0,2.989l1.126.858a4.678,4.678,0,0,1-.395.89m.662-1.241-.944-.72c.025-.629.025-1.935,0-2.564l.944-.719a.442.442,0,0,0,.148-.5,5.041,5.041,0,0,0-1.045-1.813.439.439,0,0,0-.508-.122l-1.094.457c-.533-.335-1.666-.989-2.222-1.283l-.151-1.177a.442.442,0,0,0-.36-.379,5.065,5.065,0,0,0-2.093,0,.442.442,0,0,0-.359.379l-.151,1.177c-.556.293-1.689.946-2.221,1.282l-1.094-.459a.452.452,0,0,0-.512.128A5.015,5.015,0,0,0,17,14.73a.441.441,0,0,0,.148.5l.944.719c-.025.629-.025,1.936,0,2.564l-.944.72a.441.441,0,0,0-.148.5,5.045,5.045,0,0,0,1.045,1.814.441.441,0,0,0,.507.122l1.1-.457c.533.335,1.665.989,2.222,1.283l.151,1.177a.441.441,0,0,0,.36.379,5.086,5.086,0,0,0,2.092,0,.443.443,0,0,0,.36-.379l.151-1.177c.556-.293,1.687-.946,2.22-1.282l1.1.457a.454.454,0,0,0,.514-.129,4.987,4.987,0,0,0,.613-.844,5.078,5.078,0,0,0,.427-.961.442.442,0,0,0-.148-.5m-.662,1.241a4.619,4.619,0,0,1-.574.787l-1.305-.546c-.083.089-2.473,1.468-2.59,1.495l-.181,1.4a4.619,4.619,0,0,1-1.936,0l-.179-1.4c-.117-.027-2.509-1.408-2.591-1.5l-1.306.546a4.632,4.632,0,0,1-.967-1.679l1.127-.858c-.036-.114-.036-2.875,0-2.99L17.42,14.88a4.56,4.56,0,0,1,.969-1.677l1.305.546c.082-.089,2.473-1.468,2.59-1.495l.179-1.4a4.619,4.619,0,0,1,1.936,0l.181,1.4c.117.027,2.509,1.408,2.591,1.5l1.305-.546a4.6,4.6,0,0,1,.967,1.679l-1.126.858c.035.114.036,2.875,0,2.989l1.126.858a4.678,4.678,0,0,1-.395.89m.662-1.241-.944-.72c.025-.629.025-1.935,0-2.564l.944-.719a.442.442,0,0,0,.148-.5,5.041,5.041,0,0,0-1.045-1.813.439.439,0,0,0-.508-.122l-1.094.457c-.533-.335-1.666-.989-2.222-1.283l-.151-1.177a.442.442,0,0,0-.36-.379,5.065,5.065,0,0,0-2.093,0,.442.442,0,0,0-.359.379l-.151,1.177c-.556.293-1.689.946-2.221,1.282l-1.094-.459a.452.452,0,0,0-.512.128A5.015,5.015,0,0,0,17,14.73a.441.441,0,0,0,.148.5l.944.719c-.025.629-.025,1.936,0,2.564l-.944.72a.441.441,0,0,0-.148.5,5.045,5.045,0,0,0,1.045,1.814.441.441,0,0,0,.507.122l1.1-.457c.533.335,1.665.989,2.222,1.283l.151,1.177a.441.441,0,0,0,.36.379,5.086,5.086,0,0,0,2.092,0,.443.443,0,0,0,.36-.379l.151-1.177c.556-.293,1.687-.946,2.22-1.282l1.1.457a.454.454,0,0,0,.514-.129,4.987,4.987,0,0,0,.613-.844,5.078,5.078,0,0,0,.427-.961.442.442,0,0,0-.148-.5m-.662,1.241a4.619,4.619,0,0,1-.574.787l-1.305-.546c-.083.089-2.473,1.468-2.59,1.495l-.181,1.4a4.619,4.619,0,0,1-1.936,0l-.179-1.4c-.117-.027-2.509-1.408-2.591-1.5l-1.306.546a4.632,4.632,0,0,1-.967-1.679l1.127-.858c-.036-.114-.036-2.875,0-2.99L17.42,14.88a4.56,4.56,0,0,1,.969-1.677l1.305.546c.082-.089,2.473-1.468,2.59-1.495l.179-1.4a4.619,4.619,0,0,1,1.936,0l.181,1.4c.117.027,2.509,1.408,2.591,1.5l1.305-.546a4.6,4.6,0,0,1,.967,1.679l-1.126.858c.035.114.036,2.875,0,2.989l1.126.858a4.678,4.678,0,0,1-.395.89m.662-1.241-.944-.72c.025-.629.025-1.935,0-2.564l.944-.719a.442.442,0,0,0,.148-.5,5.041,5.041,0,0,0-1.045-1.813.439.439,0,0,0-.508-.122l-1.094.457c-.533-.335-1.666-.989-2.222-1.283l-.151-1.177a.442.442,0,0,0-.36-.379,5.065,5.065,0,0,0-2.093,0,.442.442,0,0,0-.359.379l-.151,1.177c-.556.293-1.689.946-2.221,1.282l-1.094-.459a.452.452,0,0,0-.512.128A5.015,5.015,0,0,0,17,14.73a.441.441,0,0,0,.148.5l.944.719c-.025.629-.025,1.936,0,2.564l-.944.72a.441.441,0,0,0-.148.5,5.045,5.045,0,0,0,1.045,1.814.441.441,0,0,0,.507.122l1.1-.457c.533.335,1.665.989,2.222,1.283l.151,1.177a.441.441,0,0,0,.36.379,5.086,5.086,0,0,0,2.092,0,.443.443,0,0,0,.36-.379l.151-1.177c.556-.293,1.687-.946,2.22-1.282l1.1.457a.454.454,0,0,0,.514-.129,4.987,4.987,0,0,0,.613-.844,5.078,5.078,0,0,0,.427-.961.442.442,0,0,0-.148-.5m-.662,1.241a4.619,4.619,0,0,1-.574.787l-1.305-.546c-.083.089-2.473,1.468-2.59,1.495l-.181,1.4a4.619,4.619,0,0,1-1.936,0l-.179-1.4c-.117-.027-2.509-1.408-2.591-1.5l-1.306.546a4.632,4.632,0,0,1-.967-1.679l1.127-.858c-.036-.114-.036-2.875,0-2.99L17.42,14.88a4.56,4.56,0,0,1,.969-1.677l1.305.546c.082-.089,2.473-1.468,2.59-1.495l.179-1.4a4.619,4.619,0,0,1,1.936,0l.181,1.4c.117.027,2.509,1.408,2.591,1.5l1.305-.546a4.6,4.6,0,0,1,.967,1.679l-1.126.858c.035.114.036,2.875,0,2.989l1.126.858a4.678,4.678,0,0,1-.395.89M22.429,5.9A14.159,14.159,0,0,0,8.305,19.082a6.949,6.949,0,0,1-.451,2.051l-1.9,4.889a.608.608,0,0,0,.517.827l3.42.286a.611.611,0,0,1,.555.528l.142.537-.307,1.115a2.373,2.373,0,0,1,.5.561,9.7,9.7,0,0,1,.279,2.786l.135.629a1.014,1.014,0,0,0,1.015.881l4.744-.155a.814.814,0,0,1,.841.814v3.81a.725.725,0,0,0,.725.724h11.1a.725.725,0,0,0,.725-.724V33.763a4.156,4.156,0,0,1,1.345-3.04,16.587,16.587,0,0,0,4.9-11.665c0-7.82-6.338-13.158-14.158-13.158M31.24,30.238a4.838,4.838,0,0,0-1.557,3.525v4.879a.063.063,0,0,1-.063.063h-11.1a.063.063,0,0,1-.063-.063v-3.81a1.477,1.477,0,0,0-1.476-1.477h-.049L12.2,33.51a.352.352,0,0,1-.346-.306c0-.017-.006-.034-.009-.052l-.12-.556a7.206,7.206,0,0,0-.4-3.1c-.11-.154-.209-.277-.295-.377l.2-.738a.668.668,0,0,0,0-.345l-.133-.5a1.281,1.281,0,0,0-1.149-1.053L6.6,26.2l1.874-4.824a7.56,7.56,0,0,0,.494-2.244A13.527,13.527,0,0,1,22.429,6.563,14.187,14.187,0,0,1,32,10.039a11.97,11.97,0,0,1,3.928,9.019,15.879,15.879,0,0,1-4.685,11.18M29.859,14.73a5.041,5.041,0,0,0-1.045-1.813.439.439,0,0,0-.508-.122l-1.094.457c-.533-.335-1.666-.989-2.222-1.283l-.151-1.177a.442.442,0,0,0-.36-.379,5.065,5.065,0,0,0-2.093,0,.442.442,0,0,0-.359.379l-.151,1.177c-.556.293-1.689.946-2.221,1.282l-1.094-.459a.452.452,0,0,0-.512.128A5.015,5.015,0,0,0,17,14.73a.441.441,0,0,0,.148.5l.944.719c-.025.629-.025,1.936,0,2.564l-.944.72a.441.441,0,0,0-.148.5,5.045,5.045,0,0,0,1.045,1.814.441.441,0,0,0,.507.122l1.1-.457c.533.335,1.665.989,2.222,1.283l.151,1.177a.441.441,0,0,0,.36.379,5.086,5.086,0,0,0,2.092,0,.443.443,0,0,0,.36-.379l.151-1.177c.556-.293,1.687-.946,2.22-1.282l1.1.457a.454.454,0,0,0,.514-.129,4.987,4.987,0,0,0,.613-.844,5.078,5.078,0,0,0,.427-.961.442.442,0,0,0-.148-.5l-.944-.72c.025-.629.025-1.935,0-2.564l.944-.719a.442.442,0,0,0,.148-.5m-1.542,1.008c.035.114.036,2.875,0,2.989l1.126.858a4.678,4.678,0,0,1-.395.89,4.619,4.619,0,0,1-.574.787l-1.305-.546c-.083.089-2.473,1.468-2.59,1.495l-.181,1.4a4.619,4.619,0,0,1-1.936,0l-.179-1.4c-.117-.027-2.509-1.408-2.591-1.5l-1.306.546a4.632,4.632,0,0,1-.967-1.679l1.127-.858c-.036-.114-.036-2.875,0-2.99L17.42,14.88a4.56,4.56,0,0,1,.969-1.677l1.305.546c.082-.089,2.473-1.468,2.59-1.495l.179-1.4a4.619,4.619,0,0,1,1.936,0l.181,1.4c.117.027,2.509,1.408,2.591,1.5l1.305-.546a4.6,4.6,0,0,1,.967,1.679Zm1.394,3.5-.944-.72c.025-.629.025-1.935,0-2.564l.944-.719a.442.442,0,0,0,.148-.5,5.041,5.041,0,0,0-1.045-1.813.439.439,0,0,0-.508-.122l-1.094.457c-.533-.335-1.666-.989-2.222-1.283l-.151-1.177a.442.442,0,0,0-.36-.379,5.065,5.065,0,0,0-2.093,0,.442.442,0,0,0-.359.379l-.151,1.177c-.556.293-1.689.946-2.221,1.282l-1.094-.459a.452.452,0,0,0-.512.128A5.015,5.015,0,0,0,17,14.73a.441.441,0,0,0,.148.5l.944.719c-.025.629-.025,1.936,0,2.564l-.944.72a.441.441,0,0,0-.148.5,5.045,5.045,0,0,0,1.045,1.814.441.441,0,0,0,.507.122l1.1-.457c.533.335,1.665.989,2.222,1.283l.151,1.177a.441.441,0,0,0,.36.379,5.086,5.086,0,0,0,2.092,0,.443.443,0,0,0,.36-.379l.151-1.177c.556-.293,1.687-.946,2.22-1.282l1.1.457a.454.454,0,0,0,.514-.129,4.987,4.987,0,0,0,.613-.844,5.078,5.078,0,0,0,.427-.961.442.442,0,0,0-.148-.5m-.662,1.241a4.619,4.619,0,0,1-.574.787l-1.305-.546c-.083.089-2.473,1.468-2.59,1.495l-.181,1.4a4.619,4.619,0,0,1-1.936,0l-.179-1.4c-.117-.027-2.509-1.408-2.591-1.5l-1.306.546a4.632,4.632,0,0,1-.967-1.679l1.127-.858c-.036-.114-.036-2.875,0-2.99L17.42,14.88a4.56,4.56,0,0,1,.969-1.677l1.305.546c.082-.089,2.473-1.468,2.59-1.495l.179-1.4a4.619,4.619,0,0,1,1.936,0l.181,1.4c.117.027,2.509,1.408,2.591,1.5l1.305-.546a4.6,4.6,0,0,1,.967,1.679l-1.126.858c.035.114.036,2.875,0,2.989l1.126.858a4.678,4.678,0,0,1-.395.89m.662-1.241-.944-.72c.025-.629.025-1.935,0-2.564l.944-.719a.442.442,0,0,0,.148-.5,5.041,5.041,0,0,0-1.045-1.813.439.439,0,0,0-.508-.122l-1.094.457c-.533-.335-1.666-.989-2.222-1.283l-.151-1.177a.442.442,0,0,0-.36-.379,5.065,5.065,0,0,0-2.093,0,.442.442,0,0,0-.359.379l-.151,1.177c-.556.293-1.689.946-2.221,1.282l-1.094-.459a.452.452,0,0,0-.512.128A5.015,5.015,0,0,0,17,14.73a.441.441,0,0,0,.148.5l.944.719c-.025.629-.025,1.936,0,2.564l-.944.72a.441.441,0,0,0-.148.5,5.045,5.045,0,0,0,1.045,1.814.441.441,0,0,0,.507.122l1.1-.457c.533.335,1.665.989,2.222,1.283l.151,1.177a.441.441,0,0,0,.36.379,5.086,5.086,0,0,0,2.092,0,.443.443,0,0,0,.36-.379l.151-1.177c.556-.293,1.687-.946,2.22-1.282l1.1.457a.454.454,0,0,0,.514-.129,4.987,4.987,0,0,0,.613-.844,5.078,5.078,0,0,0,.427-.961.442.442,0,0,0-.148-.5m-.662,1.241a4.619,4.619,0,0,1-.574.787l-1.305-.546c-.083.089-2.473,1.468-2.59,1.495l-.181,1.4a4.619,4.619,0,0,1-1.936,0l-.179-1.4c-.117-.027-2.509-1.408-2.591-1.5l-1.306.546a4.632,4.632,0,0,1-.967-1.679l1.127-.858c-.036-.114-.036-2.875,0-2.99L17.42,14.88a4.56,4.56,0,0,1,.969-1.677l1.305.546c.082-.089,2.473-1.468,2.59-1.495l.179-1.4a4.619,4.619,0,0,1,1.936,0l.181,1.4c.117.027,2.509,1.408,2.591,1.5l1.305-.546a4.6,4.6,0,0,1,.967,1.679l-1.126.858c.035.114.036,2.875,0,2.989l1.126.858a4.678,4.678,0,0,1-.395.89m.662-1.241-.944-.72c.025-.629.025-1.935,0-2.564l.944-.719a.442.442,0,0,0,.148-.5,5.041,5.041,0,0,0-1.045-1.813.439.439,0,0,0-.508-.122l-1.094.457c-.533-.335-1.666-.989-2.222-1.283l-.151-1.177a.442.442,0,0,0-.36-.379,5.065,5.065,0,0,0-2.093,0,.442.442,0,0,0-.359.379l-.151,1.177c-.556.293-1.689.946-2.221,1.282l-1.094-.459a.452.452,0,0,0-.512.128A5.015,5.015,0,0,0,17,14.73a.441.441,0,0,0,.148.5l.944.719c-.025.629-.025,1.936,0,2.564l-.944.72a.441.441,0,0,0-.148.5,5.045,5.045,0,0,0,1.045,1.814.441.441,0,0,0,.507.122l1.1-.457c.533.335,1.665.989,2.222,1.283l.151,1.177a.441.441,0,0,0,.36.379,5.086,5.086,0,0,0,2.092,0,.443.443,0,0,0,.36-.379l.151-1.177c.556-.293,1.687-.946,2.22-1.282l1.1.457a.454.454,0,0,0,.514-.129,4.987,4.987,0,0,0,.613-.844,5.078,5.078,0,0,0,.427-.961.442.442,0,0,0-.148-.5m-.662,1.241a4.619,4.619,0,0,1-.574.787l-1.305-.546c-.083.089-2.473,1.468-2.59,1.495l-.181,1.4a4.619,4.619,0,0,1-1.936,0l-.179-1.4c-.117-.027-2.509-1.408-2.591-1.5l-1.306.546a4.632,4.632,0,0,1-.967-1.679l1.127-.858c-.036-.114-.036-2.875,0-2.99L17.42,14.88a4.56,4.56,0,0,1,.969-1.677l1.305.546c.082-.089,2.473-1.468,2.59-1.495l.179-1.4a4.619,4.619,0,0,1,1.936,0l.181,1.4c.117.027,2.509,1.408,2.591,1.5l1.305-.546a4.6,4.6,0,0,1,.967,1.679l-1.126.858c.035.114.036,2.875,0,2.989l1.126.858a4.678,4.678,0,0,1-.395.89m.662-1.241-.944-.72c.025-.629.025-1.935,0-2.564l.944-.719a.442.442,0,0,0,.148-.5,5.041,5.041,0,0,0-1.045-1.813.439.439,0,0,0-.508-.122l-1.094.457c-.533-.335-1.666-.989-2.222-1.283l-.151-1.177a.442.442,0,0,0-.36-.379,5.065,5.065,0,0,0-2.093,0,.442.442,0,0,0-.359.379l-.151,1.177c-.556.293-1.689.946-2.221,1.282l-1.094-.459a.452.452,0,0,0-.512.128A5.015,5.015,0,0,0,17,14.73a.441.441,0,0,0,.148.5l.944.719c-.025.629-.025,1.936,0,2.564l-.944.72a.441.441,0,0,0-.148.5,5.045,5.045,0,0,0,1.045,1.814.441.441,0,0,0,.507.122l1.1-.457c.533.335,1.665.989,2.222,1.283l.151,1.177a.441.441,0,0,0,.36.379,5.086,5.086,0,0,0,2.092,0,.443.443,0,0,0,.36-.379l.151-1.177c.556-.293,1.687-.946,2.22-1.282l1.1.457a.454.454,0,0,0,.514-.129,4.987,4.987,0,0,0,.613-.844,5.078,5.078,0,0,0,.427-.961.442.442,0,0,0-.148-.5m-.662,1.241a4.619,4.619,0,0,1-.574.787l-1.305-.546c-.083.089-2.473,1.468-2.59,1.495l-.181,1.4a4.619,4.619,0,0,1-1.936,0l-.179-1.4c-.117-.027-2.509-1.408-2.591-1.5l-1.306.546a4.632,4.632,0,0,1-.967-1.679l1.127-.858c-.036-.114-.036-2.875,0-2.99L17.42,14.88a4.56,4.56,0,0,1,.969-1.677l1.305.546c.082-.089,2.473-1.468,2.59-1.495l.179-1.4a4.619,4.619,0,0,1,1.936,0l.181,1.4c.117.027,2.509,1.408,2.591,1.5l1.305-.546a4.6,4.6,0,0,1,.967,1.679l-1.126.858c.035.114.036,2.875,0,2.989l1.126.858a4.678,4.678,0,0,1-.395.89" transform="translate(-5.249 -5.238)" fill="#197d95"/>
    <path id="Path_649" data-name="Path 649" d="M24.462,14l-.944-.72c.025-.629.025-1.935,0-2.564l.944-.719a.442.442,0,0,0,.148-.5,5.041,5.041,0,0,0-1.045-1.813.439.439,0,0,0-.508-.122l-1.094.457c-.533-.335-1.666-.989-2.222-1.283l-.151-1.177a.442.442,0,0,0-.36-.379,5.065,5.065,0,0,0-2.093,0,.442.442,0,0,0-.359.379l-.151,1.177c-.556.293-1.689.946-2.221,1.282L13.31,7.556a.452.452,0,0,0-.512.128,5.015,5.015,0,0,0-1.042,1.807.441.441,0,0,0,.148.5l.944.719c-.025.629-.025,1.936,0,2.564L11.9,14a.441.441,0,0,0-.148.5A5.045,5.045,0,0,0,12.8,16.31a.441.441,0,0,0,.507.122l1.1-.457c.533.335,1.665.989,2.222,1.283l.151,1.177a.441.441,0,0,0,.36.379,5.086,5.086,0,0,0,2.092,0,.443.443,0,0,0,.36-.379l.151-1.177c.556-.293,1.687-.946,2.22-1.282l1.1.457a.454.454,0,0,0,.514-.129,4.987,4.987,0,0,0,.613-.844,5.078,5.078,0,0,0,.427-.961.442.442,0,0,0-.148-.5m-1.044,1.02a3.471,3.471,0,0,1-.323.474l-1-.419a.439.439,0,0,0-.455.071l-.006,0c-.252.173-2.194,1.294-2.448,1.411a.444.444,0,0,0-.289.36l-.138,1.078a3.733,3.733,0,0,1-1.145,0l-.138-1.076a.441.441,0,0,0-.288-.36c-.256-.119-2.225-1.255-2.454-1.417a.444.444,0,0,0-.456-.071l-1,.419A3.747,3.747,0,0,1,12.7,14.5l.863-.658a.441.441,0,0,0,.167-.429.014.014,0,0,0,0-.007c-.024-.307-.025-2.549,0-2.826a.44.44,0,0,0-.166-.431L12.7,9.488a3.337,3.337,0,0,1,.249-.517,3.542,3.542,0,0,1,.323-.474l1,.42a.444.444,0,0,0,.456-.071c.23-.161,2.2-1.3,2.453-1.415a.442.442,0,0,0,.288-.36l.138-1.078a3.768,3.768,0,0,1,1.145,0l.138,1.078a.444.444,0,0,0,.289.36c.256.118,2.225,1.255,2.454,1.417a.443.443,0,0,0,.456.07l1-.419a3.765,3.765,0,0,1,.571.992l-.864.659a.44.44,0,0,0-.166.429c.025.278.026,2.519,0,2.824a.014.014,0,0,0,0,.007.441.441,0,0,0,.167.431l.866.66a3.493,3.493,0,0,1-.249.516M24.462,14l-.944-.72c.025-.629.025-1.935,0-2.564l.944-.719a.442.442,0,0,0,.148-.5,5.041,5.041,0,0,0-1.045-1.813.439.439,0,0,0-.508-.122l-1.094.457c-.533-.335-1.666-.989-2.222-1.283l-.151-1.177a.442.442,0,0,0-.36-.379,5.065,5.065,0,0,0-2.093,0,.442.442,0,0,0-.359.379l-.151,1.177c-.556.293-1.689.946-2.221,1.282L13.31,7.556a.452.452,0,0,0-.512.128,5.015,5.015,0,0,0-1.042,1.807.441.441,0,0,0,.148.5l.944.719c-.025.629-.025,1.936,0,2.564L11.9,14a.441.441,0,0,0-.148.5A5.045,5.045,0,0,0,12.8,16.31a.441.441,0,0,0,.507.122l1.1-.457c.533.335,1.665.989,2.222,1.283l.151,1.177a.441.441,0,0,0,.36.379,5.086,5.086,0,0,0,2.092,0,.443.443,0,0,0,.36-.379l.151-1.177c.556-.293,1.687-.946,2.22-1.282l1.1.457a.454.454,0,0,0,.514-.129,4.987,4.987,0,0,0,.613-.844,5.078,5.078,0,0,0,.427-.961.442.442,0,0,0-.148-.5m-1.044,1.02a3.471,3.471,0,0,1-.323.474l-1-.419a.439.439,0,0,0-.455.071l-.006,0c-.252.173-2.194,1.294-2.448,1.411a.444.444,0,0,0-.289.36l-.138,1.078a3.733,3.733,0,0,1-1.145,0l-.138-1.076a.441.441,0,0,0-.288-.36c-.256-.119-2.225-1.255-2.454-1.417a.444.444,0,0,0-.456-.071l-1,.419A3.747,3.747,0,0,1,12.7,14.5l.863-.658a.441.441,0,0,0,.167-.429.014.014,0,0,0,0-.007c-.024-.307-.025-2.549,0-2.826a.44.44,0,0,0-.166-.431L12.7,9.488a3.337,3.337,0,0,1,.249-.517,3.542,3.542,0,0,1,.323-.474l1,.42a.444.444,0,0,0,.456-.071c.23-.161,2.2-1.3,2.453-1.415a.442.442,0,0,0,.288-.36l.138-1.078a3.768,3.768,0,0,1,1.145,0l.138,1.078a.444.444,0,0,0,.289.36c.256.118,2.225,1.255,2.454,1.417a.443.443,0,0,0,.456.07l1-.419a3.765,3.765,0,0,1,.571.992l-.864.659a.44.44,0,0,0-.166.429c.025.278.026,2.519,0,2.824a.014.014,0,0,0,0,.007.441.441,0,0,0,.167.431l.866.66a3.493,3.493,0,0,1-.249.516M24.462,14l-.944-.72c.025-.629.025-1.935,0-2.564l.944-.719a.442.442,0,0,0,.148-.5,5.041,5.041,0,0,0-1.045-1.813.439.439,0,0,0-.508-.122l-1.094.457c-.533-.335-1.666-.989-2.222-1.283l-.151-1.177a.442.442,0,0,0-.36-.379,5.065,5.065,0,0,0-2.093,0,.442.442,0,0,0-.359.379l-.151,1.177c-.556.293-1.689.946-2.221,1.282L13.31,7.556a.452.452,0,0,0-.512.128,5.015,5.015,0,0,0-1.042,1.807.441.441,0,0,0,.148.5l.944.719c-.025.629-.025,1.936,0,2.564L11.9,14a.441.441,0,0,0-.148.5A5.045,5.045,0,0,0,12.8,16.31a.441.441,0,0,0,.507.122l1.1-.457c.533.335,1.665.989,2.222,1.283l.151,1.177a.441.441,0,0,0,.36.379,5.086,5.086,0,0,0,2.092,0,.443.443,0,0,0,.36-.379l.151-1.177c.556-.293,1.687-.946,2.22-1.282l1.1.457a.454.454,0,0,0,.514-.129,4.987,4.987,0,0,0,.613-.844,5.078,5.078,0,0,0,.427-.961.442.442,0,0,0-.148-.5m-1.044,1.02a3.471,3.471,0,0,1-.323.474l-1-.419a.439.439,0,0,0-.455.071l-.006,0c-.252.173-2.194,1.294-2.448,1.411a.444.444,0,0,0-.289.36l-.138,1.078a3.733,3.733,0,0,1-1.145,0l-.138-1.076a.441.441,0,0,0-.288-.36c-.256-.119-2.225-1.255-2.454-1.417a.444.444,0,0,0-.456-.071l-1,.419A3.747,3.747,0,0,1,12.7,14.5l.863-.658a.441.441,0,0,0,.167-.429.014.014,0,0,0,0-.007c-.024-.307-.025-2.549,0-2.826a.44.44,0,0,0-.166-.431L12.7,9.488a3.337,3.337,0,0,1,.249-.517,3.542,3.542,0,0,1,.323-.474l1,.42a.444.444,0,0,0,.456-.071c.23-.161,2.2-1.3,2.453-1.415a.442.442,0,0,0,.288-.36l.138-1.078a3.768,3.768,0,0,1,1.145,0l.138,1.078a.444.444,0,0,0,.289.36c.256.118,2.225,1.255,2.454,1.417a.443.443,0,0,0,.456.07l1-.419a3.765,3.765,0,0,1,.571.992l-.864.659a.44.44,0,0,0-.166.429c.025.278.026,2.519,0,2.824a.014.014,0,0,0,0,.007.441.441,0,0,0,.167.431l.866.66a3.493,3.493,0,0,1-.249.516M24.462,14l-.944-.72c.025-.629.025-1.935,0-2.564l.944-.719a.442.442,0,0,0,.148-.5,5.041,5.041,0,0,0-1.045-1.813.439.439,0,0,0-.508-.122l-1.094.457c-.533-.335-1.666-.989-2.222-1.283l-.151-1.177a.442.442,0,0,0-.36-.379,5.065,5.065,0,0,0-2.093,0,.442.442,0,0,0-.359.379l-.151,1.177c-.556.293-1.689.946-2.221,1.282L13.31,7.556a.452.452,0,0,0-.512.128,5.015,5.015,0,0,0-1.042,1.807.441.441,0,0,0,.148.5l.944.719c-.025.629-.025,1.936,0,2.564L11.9,14a.441.441,0,0,0-.148.5A5.045,5.045,0,0,0,12.8,16.31a.441.441,0,0,0,.507.122l1.1-.457c.533.335,1.665.989,2.222,1.283l.151,1.177a.441.441,0,0,0,.36.379,5.086,5.086,0,0,0,2.092,0,.443.443,0,0,0,.36-.379l.151-1.177c.556-.293,1.687-.946,2.22-1.282l1.1.457a.454.454,0,0,0,.514-.129,4.987,4.987,0,0,0,.613-.844,5.078,5.078,0,0,0,.427-.961.442.442,0,0,0-.148-.5m-1.044,1.02a3.471,3.471,0,0,1-.323.474l-1-.419a.439.439,0,0,0-.455.071l-.006,0c-.252.173-2.194,1.294-2.448,1.411a.444.444,0,0,0-.289.36l-.138,1.078a3.733,3.733,0,0,1-1.145,0l-.138-1.076a.441.441,0,0,0-.288-.36c-.256-.119-2.225-1.255-2.454-1.417a.444.444,0,0,0-.456-.071l-1,.419A3.747,3.747,0,0,1,12.7,14.5l.863-.658a.441.441,0,0,0,.167-.429.014.014,0,0,0,0-.007c-.024-.307-.025-2.549,0-2.826a.44.44,0,0,0-.166-.431L12.7,9.488a3.337,3.337,0,0,1,.249-.517,3.542,3.542,0,0,1,.323-.474l1,.42a.444.444,0,0,0,.456-.071c.23-.161,2.2-1.3,2.453-1.415a.442.442,0,0,0,.288-.36l.138-1.078a3.768,3.768,0,0,1,1.145,0l.138,1.078a.444.444,0,0,0,.289.36c.256.118,2.225,1.255,2.454,1.417a.443.443,0,0,0,.456.07l1-.419a3.765,3.765,0,0,1,.571.992l-.864.659a.44.44,0,0,0-.166.429c.025.278.026,2.519,0,2.824a.014.014,0,0,0,0,.007.441.441,0,0,0,.167.431l.866.66a3.493,3.493,0,0,1-.249.516M24.462,14l-.944-.72c.025-.629.025-1.935,0-2.564l.944-.719a.442.442,0,0,0,.148-.5,5.041,5.041,0,0,0-1.045-1.813.439.439,0,0,0-.508-.122l-1.094.457c-.533-.335-1.666-.989-2.222-1.283l-.151-1.177a.442.442,0,0,0-.36-.379,5.065,5.065,0,0,0-2.093,0,.442.442,0,0,0-.359.379l-.151,1.177c-.556.293-1.689.946-2.221,1.282L13.31,7.556a.452.452,0,0,0-.512.128,5.015,5.015,0,0,0-1.042,1.807.441.441,0,0,0,.148.5l.944.719c-.025.629-.025,1.936,0,2.564L11.9,14a.441.441,0,0,0-.148.5A5.045,5.045,0,0,0,12.8,16.31a.441.441,0,0,0,.507.122l1.1-.457c.533.335,1.665.989,2.222,1.283l.151,1.177a.441.441,0,0,0,.36.379,5.086,5.086,0,0,0,2.092,0,.443.443,0,0,0,.36-.379l.151-1.177c.556-.293,1.687-.946,2.22-1.282l1.1.457a.454.454,0,0,0,.514-.129,4.987,4.987,0,0,0,.613-.844,5.078,5.078,0,0,0,.427-.961.442.442,0,0,0-.148-.5m-1.044,1.02a3.471,3.471,0,0,1-.323.474l-1-.419a.439.439,0,0,0-.455.071l-.006,0c-.252.173-2.194,1.294-2.448,1.411a.444.444,0,0,0-.289.36l-.138,1.078a3.733,3.733,0,0,1-1.145,0l-.138-1.076a.441.441,0,0,0-.288-.36c-.256-.119-2.225-1.255-2.454-1.417a.444.444,0,0,0-.456-.071l-1,.419A3.747,3.747,0,0,1,12.7,14.5l.863-.658a.441.441,0,0,0,.167-.429.014.014,0,0,0,0-.007c-.024-.307-.025-2.549,0-2.826a.44.44,0,0,0-.166-.431L12.7,9.488a3.337,3.337,0,0,1,.249-.517,3.542,3.542,0,0,1,.323-.474l1,.42a.444.444,0,0,0,.456-.071c.23-.161,2.2-1.3,2.453-1.415a.442.442,0,0,0,.288-.36l.138-1.078a3.768,3.768,0,0,1,1.145,0l.138,1.078a.444.444,0,0,0,.289.36c.256.118,2.225,1.255,2.454,1.417a.443.443,0,0,0,.456.07l1-.419a3.765,3.765,0,0,1,.571.992l-.864.659a.44.44,0,0,0-.166.429c.025.278.026,2.519,0,2.824a.014.014,0,0,0,0,.007.441.441,0,0,0,.167.431l.866.66a3.493,3.493,0,0,1-.249.516M24.462,14l-.944-.72c.025-.629.025-1.935,0-2.564l.944-.719a.442.442,0,0,0,.148-.5,5.041,5.041,0,0,0-1.045-1.813.439.439,0,0,0-.508-.122l-1.094.457c-.533-.335-1.666-.989-2.222-1.283l-.151-1.177a.442.442,0,0,0-.36-.379,5.065,5.065,0,0,0-2.093,0,.442.442,0,0,0-.359.379l-.151,1.177c-.556.293-1.689.946-2.221,1.282L13.31,7.556a.452.452,0,0,0-.512.128,5.015,5.015,0,0,0-1.042,1.807.441.441,0,0,0,.148.5l.944.719c-.025.629-.025,1.936,0,2.564L11.9,14a.441.441,0,0,0-.148.5A5.045,5.045,0,0,0,12.8,16.31a.441.441,0,0,0,.507.122l1.1-.457c.533.335,1.665.989,2.222,1.283l.151,1.177a.441.441,0,0,0,.36.379,5.086,5.086,0,0,0,2.092,0,.443.443,0,0,0,.36-.379l.151-1.177c.556-.293,1.687-.946,2.22-1.282l1.1.457a.454.454,0,0,0,.514-.129,4.987,4.987,0,0,0,.613-.844,5.078,5.078,0,0,0,.427-.961.442.442,0,0,0-.148-.5m-1.044,1.02a3.471,3.471,0,0,1-.323.474l-1-.419a.439.439,0,0,0-.455.071l-.006,0c-.252.173-2.194,1.294-2.448,1.411a.444.444,0,0,0-.289.36l-.138,1.078a3.733,3.733,0,0,1-1.145,0l-.138-1.076a.441.441,0,0,0-.288-.36c-.256-.119-2.225-1.255-2.454-1.417a.444.444,0,0,0-.456-.071l-1,.419A3.747,3.747,0,0,1,12.7,14.5l.863-.658a.441.441,0,0,0,.167-.429.014.014,0,0,0,0-.007c-.024-.307-.025-2.549,0-2.826a.44.44,0,0,0-.166-.431L12.7,9.488a3.337,3.337,0,0,1,.249-.517,3.542,3.542,0,0,1,.323-.474l1,.42a.444.444,0,0,0,.456-.071c.23-.161,2.2-1.3,2.453-1.415a.442.442,0,0,0,.288-.36l.138-1.078a3.768,3.768,0,0,1,1.145,0l.138,1.078a.444.444,0,0,0,.289.36c.256.118,2.225,1.255,2.454,1.417a.443.443,0,0,0,.456.07l1-.419a3.765,3.765,0,0,1,.571.992l-.864.659a.44.44,0,0,0-.166.429c.025.278.026,2.519,0,2.824a.014.014,0,0,0,0,.007.441.441,0,0,0,.167.431l.866.66a3.493,3.493,0,0,1-.249.516m4.217-11.2A15.506,15.506,0,0,0,17.181,0,14.82,14.82,0,0,0,2.4,13.8a6.314,6.314,0,0,1-.407,1.856l-1.9,4.889a1.272,1.272,0,0,0,1.08,1.728l3.381.281c0,.013.006.028.009.041l.1.364-.259.942a.6.6,0,0,0,.259.72,2.466,2.466,0,0,1,.323.38,10.492,10.492,0,0,1,.172,2.414.717.717,0,0,0,.015.147l.13.608A1.68,1.68,0,0,0,6.951,29.6h.03l4.745-.155a.145.145,0,0,1,.11.044.148.148,0,0,1,.047.109V33.4A1.389,1.389,0,0,0,13.27,34.79h11.1A1.389,1.389,0,0,0,25.758,33.4V28.524a3.511,3.511,0,0,1,1.135-2.555A17.26,17.26,0,0,0,32,13.819a13.278,13.278,0,0,0-4.365-10M25.992,25a4.838,4.838,0,0,0-1.557,3.525V33.4a.063.063,0,0,1-.063.063H13.27a.063.063,0,0,1-.063-.063v-3.81a1.477,1.477,0,0,0-1.476-1.477h-.049l-4.734.154a.352.352,0,0,1-.346-.306c0-.017-.006-.034-.009-.052l-.12-.556a7.206,7.206,0,0,0-.4-3.1c-.11-.154-.209-.277-.295-.377l.2-.738a.668.668,0,0,0,0-.345l-.133-.5A1.281,1.281,0,0,0,4.7,21.236l-3.348-.279,1.874-4.824a7.56,7.56,0,0,0,.494-2.244A13.527,13.527,0,0,1,17.181,1.324,14.187,14.187,0,0,1,26.748,4.8a11.97,11.97,0,0,1,3.928,9.019A15.879,15.879,0,0,1,25.992,25M24.61,9.491a5.041,5.041,0,0,0-1.045-1.813.439.439,0,0,0-.508-.122l-1.094.457c-.533-.335-1.666-.989-2.222-1.283l-.151-1.177a.442.442,0,0,0-.36-.379,5.065,5.065,0,0,0-2.093,0,.442.442,0,0,0-.359.379l-.151,1.177c-.556.293-1.689.946-2.221,1.282L13.31,7.556a.452.452,0,0,0-.512.128,5.015,5.015,0,0,0-1.042,1.807.441.441,0,0,0,.148.5l.944.719c-.025.629-.025,1.936,0,2.564L11.9,14a.441.441,0,0,0-.148.5A5.045,5.045,0,0,0,12.8,16.31a.441.441,0,0,0,.507.122l1.1-.457c.533.335,1.665.989,2.222,1.283l.151,1.177a.441.441,0,0,0,.36.379,5.086,5.086,0,0,0,2.092,0,.443.443,0,0,0,.36-.379l.151-1.177c.556-.293,1.687-.946,2.22-1.282l1.1.457a.454.454,0,0,0,.514-.129,4.987,4.987,0,0,0,.613-.844,5.078,5.078,0,0,0,.427-.961.442.442,0,0,0-.148-.5l-.944-.72c.025-.629.025-1.935,0-2.564l.944-.719a.442.442,0,0,0,.148-.5m-1.81.657a.44.44,0,0,0-.166.429c.025.278.026,2.519,0,2.824a.014.014,0,0,0,0,.007.441.441,0,0,0,.167.431l.866.66a3.874,3.874,0,0,1-.572.99l-1-.419a.439.439,0,0,0-.455.071l-.006,0c-.252.173-2.194,1.294-2.448,1.411a.444.444,0,0,0-.289.36l-.138,1.078a3.733,3.733,0,0,1-1.145,0l-.138-1.076a.441.441,0,0,0-.288-.36c-.256-.119-2.225-1.255-2.454-1.417a.444.444,0,0,0-.456-.071l-1,.419A3.747,3.747,0,0,1,12.7,14.5l.863-.658a.441.441,0,0,0,.167-.429.014.014,0,0,0,0-.007c-.024-.307-.025-2.549,0-2.826a.44.44,0,0,0-.166-.431L12.7,9.488a3.337,3.337,0,0,1,.249-.517,3.542,3.542,0,0,1,.323-.474l1,.42a.444.444,0,0,0,.456-.071c.23-.161,2.2-1.3,2.453-1.415a.442.442,0,0,0,.288-.36l.138-1.078a3.768,3.768,0,0,1,1.145,0l.138,1.078a.444.444,0,0,0,.289.36c.256.118,2.225,1.255,2.454,1.417a.443.443,0,0,0,.456.07l1-.419a3.765,3.765,0,0,1,.571.992ZM24.462,14l-.944-.72c.025-.629.025-1.935,0-2.564l.944-.719a.442.442,0,0,0,.148-.5,5.041,5.041,0,0,0-1.045-1.813.439.439,0,0,0-.508-.122l-1.094.457c-.533-.335-1.666-.989-2.222-1.283l-.151-1.177a.442.442,0,0,0-.36-.379,5.065,5.065,0,0,0-2.093,0,.442.442,0,0,0-.359.379l-.151,1.177c-.556.293-1.689.946-2.221,1.282L13.31,7.556a.452.452,0,0,0-.512.128,5.015,5.015,0,0,0-1.042,1.807.441.441,0,0,0,.148.5l.944.719c-.025.629-.025,1.936,0,2.564L11.9,14a.441.441,0,0,0-.148.5A5.045,5.045,0,0,0,12.8,16.31a.441.441,0,0,0,.507.122l1.1-.457c.533.335,1.665.989,2.222,1.283l.151,1.177a.441.441,0,0,0,.36.379,5.086,5.086,0,0,0,2.092,0,.443.443,0,0,0,.36-.379l.151-1.177c.556-.293,1.687-.946,2.22-1.282l1.1.457a.454.454,0,0,0,.514-.129,4.987,4.987,0,0,0,.613-.844,5.078,5.078,0,0,0,.427-.961.442.442,0,0,0-.148-.5m-1.044,1.02a3.471,3.471,0,0,1-.323.474l-1-.419a.439.439,0,0,0-.455.071l-.006,0c-.252.173-2.194,1.294-2.448,1.411a.444.444,0,0,0-.289.36l-.138,1.078a3.733,3.733,0,0,1-1.145,0l-.138-1.076a.441.441,0,0,0-.288-.36c-.256-.119-2.225-1.255-2.454-1.417a.444.444,0,0,0-.456-.071l-1,.419A3.747,3.747,0,0,1,12.7,14.5l.863-.658a.441.441,0,0,0,.167-.429.014.014,0,0,0,0-.007c-.024-.307-.025-2.549,0-2.826a.44.44,0,0,0-.166-.431L12.7,9.488a3.337,3.337,0,0,1,.249-.517,3.542,3.542,0,0,1,.323-.474l1,.42a.444.444,0,0,0,.456-.071c.23-.161,2.2-1.3,2.453-1.415a.442.442,0,0,0,.288-.36l.138-1.078a3.768,3.768,0,0,1,1.145,0l.138,1.078a.444.444,0,0,0,.289.36c.256.118,2.225,1.255,2.454,1.417a.443.443,0,0,0,.456.07l1-.419a3.765,3.765,0,0,1,.571.992l-.864.659a.44.44,0,0,0-.166.429c.025.278.026,2.519,0,2.824a.014.014,0,0,0,0,.007.441.441,0,0,0,.167.431l.866.66a3.493,3.493,0,0,1-.249.516M24.462,14l-.944-.72c.025-.629.025-1.935,0-2.564l.944-.719a.442.442,0,0,0,.148-.5,5.041,5.041,0,0,0-1.045-1.813.439.439,0,0,0-.508-.122l-1.094.457c-.533-.335-1.666-.989-2.222-1.283l-.151-1.177a.442.442,0,0,0-.36-.379,5.065,5.065,0,0,0-2.093,0,.442.442,0,0,0-.359.379l-.151,1.177c-.556.293-1.689.946-2.221,1.282L13.31,7.556a.452.452,0,0,0-.512.128,5.015,5.015,0,0,0-1.042,1.807.441.441,0,0,0,.148.5l.944.719c-.025.629-.025,1.936,0,2.564L11.9,14a.441.441,0,0,0-.148.5A5.045,5.045,0,0,0,12.8,16.31a.441.441,0,0,0,.507.122l1.1-.457c.533.335,1.665.989,2.222,1.283l.151,1.177a.441.441,0,0,0,.36.379,5.086,5.086,0,0,0,2.092,0,.443.443,0,0,0,.36-.379l.151-1.177c.556-.293,1.687-.946,2.22-1.282l1.1.457a.454.454,0,0,0,.514-.129,4.987,4.987,0,0,0,.613-.844,5.078,5.078,0,0,0,.427-.961.442.442,0,0,0-.148-.5m-1.044,1.02a3.471,3.471,0,0,1-.323.474l-1-.419a.439.439,0,0,0-.455.071l-.006,0c-.252.173-2.194,1.294-2.448,1.411a.444.444,0,0,0-.289.36l-.138,1.078a3.733,3.733,0,0,1-1.145,0l-.138-1.076a.441.441,0,0,0-.288-.36c-.256-.119-2.225-1.255-2.454-1.417a.444.444,0,0,0-.456-.071l-1,.419A3.747,3.747,0,0,1,12.7,14.5l.863-.658a.441.441,0,0,0,.167-.429.014.014,0,0,0,0-.007c-.024-.307-.025-2.549,0-2.826a.44.44,0,0,0-.166-.431L12.7,9.488a3.337,3.337,0,0,1,.249-.517,3.542,3.542,0,0,1,.323-.474l1,.42a.444.444,0,0,0,.456-.071c.23-.161,2.2-1.3,2.453-1.415a.442.442,0,0,0,.288-.36l.138-1.078a3.768,3.768,0,0,1,1.145,0l.138,1.078a.444.444,0,0,0,.289.36c.256.118,2.225,1.255,2.454,1.417a.443.443,0,0,0,.456.07l1-.419a3.765,3.765,0,0,1,.571.992l-.864.659a.44.44,0,0,0-.166.429c.025.278.026,2.519,0,2.824a.014.014,0,0,0,0,.007.441.441,0,0,0,.167.431l.866.66a3.493,3.493,0,0,1-.249.516M24.462,14l-.944-.72c.025-.629.025-1.935,0-2.564l.944-.719a.442.442,0,0,0,.148-.5,5.041,5.041,0,0,0-1.045-1.813.439.439,0,0,0-.508-.122l-1.094.457c-.533-.335-1.666-.989-2.222-1.283l-.151-1.177a.442.442,0,0,0-.36-.379,5.065,5.065,0,0,0-2.093,0,.442.442,0,0,0-.359.379l-.151,1.177c-.556.293-1.689.946-2.221,1.282L13.31,7.556a.452.452,0,0,0-.512.128,5.015,5.015,0,0,0-1.042,1.807.441.441,0,0,0,.148.5l.944.719c-.025.629-.025,1.936,0,2.564L11.9,14a.441.441,0,0,0-.148.5A5.045,5.045,0,0,0,12.8,16.31a.441.441,0,0,0,.507.122l1.1-.457c.533.335,1.665.989,2.222,1.283l.151,1.177a.441.441,0,0,0,.36.379,5.086,5.086,0,0,0,2.092,0,.443.443,0,0,0,.36-.379l.151-1.177c.556-.293,1.687-.946,2.22-1.282l1.1.457a.454.454,0,0,0,.514-.129,4.987,4.987,0,0,0,.613-.844,5.078,5.078,0,0,0,.427-.961.442.442,0,0,0-.148-.5m-1.044,1.02a3.471,3.471,0,0,1-.323.474l-1-.419a.439.439,0,0,0-.455.071l-.006,0c-.252.173-2.194,1.294-2.448,1.411a.444.444,0,0,0-.289.36l-.138,1.078a3.733,3.733,0,0,1-1.145,0l-.138-1.076a.441.441,0,0,0-.288-.36c-.256-.119-2.225-1.255-2.454-1.417a.444.444,0,0,0-.456-.071l-1,.419A3.747,3.747,0,0,1,12.7,14.5l.863-.658a.441.441,0,0,0,.167-.429.014.014,0,0,0,0-.007c-.024-.307-.025-2.549,0-2.826a.44.44,0,0,0-.166-.431L12.7,9.488a3.337,3.337,0,0,1,.249-.517,3.542,3.542,0,0,1,.323-.474l1,.42a.444.444,0,0,0,.456-.071c.23-.161,2.2-1.3,2.453-1.415a.442.442,0,0,0,.288-.36l.138-1.078a3.768,3.768,0,0,1,1.145,0l.138,1.078a.444.444,0,0,0,.289.36c.256.118,2.225,1.255,2.454,1.417a.443.443,0,0,0,.456.07l1-.419a3.765,3.765,0,0,1,.571.992l-.864.659a.44.44,0,0,0-.166.429c.025.278.026,2.519,0,2.824a.014.014,0,0,0,0,.007.441.441,0,0,0,.167.431l.866.66a3.493,3.493,0,0,1-.249.516M24.462,14l-.944-.72c.025-.629.025-1.935,0-2.564l.944-.719a.442.442,0,0,0,.148-.5,5.041,5.041,0,0,0-1.045-1.813.439.439,0,0,0-.508-.122l-1.094.457c-.533-.335-1.666-.989-2.222-1.283l-.151-1.177a.442.442,0,0,0-.36-.379,5.065,5.065,0,0,0-2.093,0,.442.442,0,0,0-.359.379l-.151,1.177c-.556.293-1.689.946-2.221,1.282L13.31,7.556a.452.452,0,0,0-.512.128,5.015,5.015,0,0,0-1.042,1.807.441.441,0,0,0,.148.5l.944.719c-.025.629-.025,1.936,0,2.564L11.9,14a.441.441,0,0,0-.148.5A5.045,5.045,0,0,0,12.8,16.31a.441.441,0,0,0,.507.122l1.1-.457c.533.335,1.665.989,2.222,1.283l.151,1.177a.441.441,0,0,0,.36.379,5.086,5.086,0,0,0,2.092,0,.443.443,0,0,0,.36-.379l.151-1.177c.556-.293,1.687-.946,2.22-1.282l1.1.457a.454.454,0,0,0,.514-.129,4.987,4.987,0,0,0,.613-.844,5.078,5.078,0,0,0,.427-.961.442.442,0,0,0-.148-.5m-1.044,1.02a3.471,3.471,0,0,1-.323.474l-1-.419a.439.439,0,0,0-.455.071l-.006,0c-.252.173-2.194,1.294-2.448,1.411a.444.444,0,0,0-.289.36l-.138,1.078a3.733,3.733,0,0,1-1.145,0l-.138-1.076a.441.441,0,0,0-.288-.36c-.256-.119-2.225-1.255-2.454-1.417a.444.444,0,0,0-.456-.071l-1,.419A3.747,3.747,0,0,1,12.7,14.5l.863-.658a.441.441,0,0,0,.167-.429.014.014,0,0,0,0-.007c-.024-.307-.025-2.549,0-2.826a.44.44,0,0,0-.166-.431L12.7,9.488a3.337,3.337,0,0,1,.249-.517,3.542,3.542,0,0,1,.323-.474l1,.42a.444.444,0,0,0,.456-.071c.23-.161,2.2-1.3,2.453-1.415a.442.442,0,0,0,.288-.36l.138-1.078a3.768,3.768,0,0,1,1.145,0l.138,1.078a.444.444,0,0,0,.289.36c.256.118,2.225,1.255,2.454,1.417a.443.443,0,0,0,.456.07l1-.419a3.765,3.765,0,0,1,.571.992l-.864.659a.44.44,0,0,0-.166.429c.025.278.026,2.519,0,2.824a.014.014,0,0,0,0,.007.441.441,0,0,0,.167.431l.866.66a3.493,3.493,0,0,1-.249.516" transform="translate(0)" fill="#5cabbe"/>
    <path id="Path_650" data-name="Path 650" d="M117.343,54.114l-.944-.72c.025-.629.025-1.935,0-2.564l.944-.719a.442.442,0,0,0,.148-.5,5.041,5.041,0,0,0-1.045-1.813.439.439,0,0,0-.508-.122l-1.094.457c-.533-.335-1.666-.989-2.222-1.283l-.151-1.177a.442.442,0,0,0-.36-.379,5.066,5.066,0,0,0-2.093,0,.442.442,0,0,0-.359.379l-.151,1.177c-.556.293-1.689.946-2.221,1.282l-1.094-.459a.452.452,0,0,0-.512.128,5.015,5.015,0,0,0-1.042,1.807.441.441,0,0,0,.148.5l.944.719c-.025.629-.025,1.936,0,2.564l-.944.72a.441.441,0,0,0-.148.5,5.045,5.045,0,0,0,1.045,1.814.441.441,0,0,0,.507.122l1.1-.457c.533.335,1.665.989,2.222,1.283l.151,1.177a.441.441,0,0,0,.36.379,5.086,5.086,0,0,0,2.092,0,.443.443,0,0,0,.36-.379l.151-1.177c.556-.293,1.687-.946,2.22-1.282l1.1.457a.454.454,0,0,0,.514-.129,4.987,4.987,0,0,0,.613-.844,5.078,5.078,0,0,0,.427-.961.442.442,0,0,0-.148-.5m-1.044,1.02a3.471,3.471,0,0,1-.323.474l-1-.419a.439.439,0,0,0-.455.071l-.006,0a.43.43,0,0,0-.033.031c.007-.007.017-.018.033-.031-.252.173-2.194,1.294-2.448,1.411a.444.444,0,0,0-.289.36l-.138,1.078a3.733,3.733,0,0,1-1.145,0l-.138-1.076a.441.441,0,0,0-.288-.36c-.256-.119-2.225-1.255-2.454-1.417a.444.444,0,0,0-.456-.071l-1,.419a3.747,3.747,0,0,1-.571-.992l.863-.658a.441.441,0,0,0,.167-.429.014.014,0,0,0,0-.007c0-.015-.007-.029-.011-.044a.237.237,0,0,1,.011.044c-.024-.307-.025-2.549,0-2.826a.44.44,0,0,0-.166-.431l-.866-.659a3.337,3.337,0,0,1,.249-.517,3.543,3.543,0,0,1,.323-.474l1,.42a.444.444,0,0,0,.456-.071c.23-.161,2.2-1.3,2.453-1.415a.442.442,0,0,0,.288-.36l.138-1.078a3.768,3.768,0,0,1,1.145,0l.138,1.078a.444.444,0,0,0,.289.36c.256.118,2.225,1.255,2.454,1.417a.443.443,0,0,0,.456.07l1-.419a3.765,3.765,0,0,1,.571.992l-.864.659a.44.44,0,0,0-.166.429c.025.278.026,2.519,0,2.824a.014.014,0,0,0,0,.007.441.441,0,0,0,.167.431l.866.66a3.493,3.493,0,0,1-.249.516" transform="translate(-92.881 -40.119)" fill="#5cabbe"/>
    <path id="Path_651" data-name="Path 651" d="M123.359,60.95a.441.441,0,0,1-.167-.431.014.014,0,0,1,0-.007c.025-.3.024-2.546,0-2.824a.44.44,0,0,1,.166-.429l.864-.659a3.765,3.765,0,0,0-.571-.992l-1,.419a.443.443,0,0,1-.456-.07c-.23-.163-2.2-1.3-2.454-1.417a.444.444,0,0,1-.289-.36l-.138-1.078a3.768,3.768,0,0,0-1.145,0l-.138,1.078a.442.442,0,0,1-.288.36c-.256.118-2.223,1.254-2.453,1.415a.444.444,0,0,1-.456.071l-1-.42a3.542,3.542,0,0,0-.323.474,3.337,3.337,0,0,0-.249.517l.866.659a.44.44,0,0,1,.166.431c-.025.277-.024,2.518,0,2.826a.014.014,0,0,1,0,.007.441.441,0,0,1-.167.429l-.863.658a3.747,3.747,0,0,0,.571.992l1-.419a.444.444,0,0,1,.456.071c.23.163,2.2,1.3,2.454,1.417a.441.441,0,0,1,.288.36l.138,1.076a3.733,3.733,0,0,0,1.145,0l.138-1.078a.444.444,0,0,1,.289-.36c.253-.117,2.2-1.238,2.448-1.411l.006,0a.439.439,0,0,1,.455-.071l1,.419a3.874,3.874,0,0,0,.572-.99Zm-2.716-.748a2.181,2.181,0,0,1-1.333,1.023,2.229,2.229,0,0,1-.573.076,2.2,2.2,0,1,1,1.906-1.1" transform="translate(-100.558 -47.111)" fill="#5cabbe"/>
  </g>
</svg>
