<svg xmlns="http://www.w3.org/2000/svg" xmlns:xlink="http://www.w3.org/1999/xlink" width="32" height="35.821" viewBox="0 0 32 35.821">
  <defs>
    <clipPath id="clip-path">
      <rect id="Rectangle_1669" data-name="Rectangle 1669" width="32" height="35.821" fill="#5cabbe"/>
    </clipPath>
  </defs>
  <g id="Group_988" data-name="Group 988" clip-path="url(#clip-path)">
    <path id="Path_711" data-name="Path 711" d="M155.986,50.421a.486.486,0,0,1-.435-.7l4.209-8.453a.486.486,0,0,1,.87.433l-4.209,8.453a.486.486,0,0,1-.435.27" transform="translate(-136.305 -35.935)" fill="#5cabbe"/>
    <path id="Path_712" data-name="Path 712" d="M96.8,46.981a.486.486,0,0,1-.452-.306L92.937,38.1a.486.486,0,0,1,.9-.359l3.415,8.578a.486.486,0,0,1-.451.666" transform="translate(-81.434 -32.81)" fill="#5cabbe"/>
    <path id="Path_713" data-name="Path 713" d="M35.8,100.081a.484.484,0,0,1-.2-.044l-9.016-4.109a.486.486,0,0,1,.4-.885L36,99.152a.486.486,0,0,1-.2.928" transform="translate(-23.051 -83.272)" fill="#5cabbe"/>
    <path id="Path_714" data-name="Path 714" d="M49.357,173.766a.486.486,0,0,1-.306-.864l6.913-5.6a.486.486,0,1,1,.612.756l-6.913,5.6a.484.484,0,0,1-.306.108" transform="translate(-42.838 -146.558)" fill="#5cabbe"/>
    <path id="Path_715" data-name="Path 715" d="M148.629,192.122a.486.486,0,0,1-.47-.362l-2.412-9.134a.486.486,0,1,1,.94-.248l2.412,9.134a.487.487,0,0,1-.47.61" transform="translate(-127.742 -159.547)" fill="#5cabbe"/>
    <path id="Path_716" data-name="Path 716" d="M181.686,151.038a.52.52,0,0,1-.057,0l-6.679-.778a.486.486,0,1,1,.112-.966l6.678.777a.486.486,0,0,1-.056.969" transform="translate(-152.977 -130.86)" fill="#5cabbe"/>
    <path id="Path_717" data-name="Path 717" d="M110.038,112.716a4.818,4.818,0,1,1-4.818-4.818,4.818,4.818,0,0,1,4.818,4.818" transform="translate(-88.009 -94.579)" fill="#5cabbe"/>
    <path id="Path_718" data-name="Path 718" d="M100.044,113.084a5.547,5.547,0,1,1,5.547-5.547,5.553,5.553,0,0,1-5.547,5.547m0-9.635a4.089,4.089,0,1,0,4.088,4.089,4.093,4.093,0,0,0-4.088-4.089" transform="translate(-82.832 -89.401)" fill="#5cabbe"/>
    <path id="Path_719" data-name="Path 719" d="M164.142,10.724a4.818,4.818,0,1,1-4.818-4.818,4.818,4.818,0,0,1,4.818,4.818" transform="translate(-135.435 -5.177)" fill="#5cabbe"/>
    <path id="Path_720" data-name="Path 720" d="M154.147,11.092a5.547,5.547,0,1,1,5.547-5.547,5.553,5.553,0,0,1-5.547,5.547m0-9.635a4.089,4.089,0,1,0,4.089,4.089,4.093,4.093,0,0,0-4.089-4.089" transform="translate(-130.257 0.001)" fill="#5cabbe"/>
    <path id="Path_721" data-name="Path 721" d="M23.416,182.266a4.818,4.818,0,1,1-4.818-4.818,4.818,4.818,0,0,1,4.818,4.818" transform="translate(-12.08 -155.544)" fill="#5cabbe"/>
    <path id="Path_722" data-name="Path 722" d="M13.422,182.635a5.547,5.547,0,1,1,5.547-5.547,5.553,5.553,0,0,1-5.547,5.547m0-9.635a4.089,4.089,0,1,0,4.089,4.088A4.093,4.093,0,0,0,13.422,173" transform="translate(-6.903 -150.367)" fill="#5cabbe"/>
    <path id="Path_723" data-name="Path 723" d="M150.884,238.627a3,3,0,1,1-3-3,3,3,0,0,1,3,3" transform="translate(-126.994 -206.538)" fill="#5cabbe"/>
    <path id="Path_724" data-name="Path 724" d="M142.7,237.182a3.732,3.732,0,1,1,3.732-3.732,3.736,3.736,0,0,1-3.732,3.732m0-6.006a2.274,2.274,0,1,0,2.274,2.274,2.277,2.277,0,0,0-2.274-2.274" transform="translate(-121.816 -201.361)" fill="#5cabbe"/>
    <path id="Path_725" data-name="Path 725" d="M11.913,77.612a3,3,0,1,1-3-3,3,3,0,0,1,3,3" transform="translate(-5.178 -65.399)" fill="#5cabbe"/>
    <path id="Path_726" data-name="Path 726" d="M3.732,76.167a3.732,3.732,0,1,1,3.732-3.732,3.736,3.736,0,0,1-3.732,3.732m0-6.006a2.274,2.274,0,1,0,2.274,2.274,2.277,2.277,0,0,0-2.274-2.274" transform="translate(0 -60.222)" fill="#5cabbe"/>
    <path id="Path_727" data-name="Path 727" d="M81.2,23.168A2.563,2.563,0,1,1,78.637,20.6,2.563,2.563,0,0,1,81.2,23.168" transform="translate(-66.683 -18.062)" fill="#5cabbe"/>
    <path id="Path_728" data-name="Path 728" d="M73.461,21.283a3.292,3.292,0,1,1,3.292-3.292,3.3,3.3,0,0,1-3.292,3.292m0-5.127A1.834,1.834,0,1,0,75.3,17.99a1.836,1.836,0,0,0-1.834-1.834" transform="translate(-61.507 -12.884)" fill="#5cabbe"/>
    <path id="Path_729" data-name="Path 729" d="M216.923,141.32a2.563,2.563,0,1,1-2.563-2.563,2.563,2.563,0,0,1,2.563,2.563" transform="translate(-185.652 -121.629)" fill="#5cabbe"/>
    <path id="Path_730" data-name="Path 730" d="M209.183,139.436a3.292,3.292,0,1,1,3.292-3.292,3.3,3.3,0,0,1-3.292,3.292m0-5.127a1.834,1.834,0,1,0,1.834,1.834,1.836,1.836,0,0,0-1.834-1.834" transform="translate(-180.476 -116.452)" fill="#5cabbe"/>
  </g>
</svg>
