<svg id="Group_863" data-name="Group 863" xmlns="http://www.w3.org/2000/svg" xmlns:xlink="http://www.w3.org/1999/xlink" width="32" height="27.859" viewBox="0 0 32 27.859">
  <defs>
    <clipPath id="clip-path">
      <rect id="Rectangle_1627" data-name="Rectangle 1627" width="32" height="27.859" fill="#5cabbe"/>
    </clipPath>
  </defs>
  <g id="Group_855" data-name="Group 855" clip-path="url(#clip-path)">
    <path id="Path_644" data-name="Path 644" d="M27.58,0H4.42A4.425,4.425,0,0,0,0,4.42V19.411A4.427,4.427,0,0,0,4.42,23.83H27.58a4.4,4.4,0,0,0,3.089-1.261.073.073,0,0,1,.01-.01A4.4,4.4,0,0,0,32,19.411V4.42A4.425,4.425,0,0,0,27.58,0M3.864,20.164H1.516a2.989,2.989,0,0,1-.1-.753V17.848H3.864Zm0-4.721H1.42V13.126H3.864Zm0-4.722H1.42V8.4H3.864ZM3.864,6H1.42V4.42a2.973,2.973,0,0,1,.091-.736H3.864ZM26.945,22.41H5.067V1.42H26.945Zm3.635-3a2.989,2.989,0,0,1-.1.753H28.148V17.848H30.58Zm0-3.968H28.148V13.126H30.58Zm0-4.722H28.148V8.4H30.58ZM30.58,6H28.148V3.684h2.341a2.973,2.973,0,0,1,.091.736Z" fill="#5cabbe"/>
    <path id="Path_645" data-name="Path 645" d="M32,220.6a.71.71,0,0,1-.711.711H.711a.71.71,0,1,1,0-1.42H31.289A.71.71,0,0,1,32,220.6" transform="translate(0 -193.453)" fill="#5cabbe"/>
    <path id="Path_646" data-name="Path 646" d="M255.08,187.62v.01h-.01a.072.072,0,0,1,.01-.01" transform="translate(-224.401 -165.061)" fill="#5cabbe"/>
    <path id="Path_647" data-name="Path 647" d="M116.759,68.912a.482.482,0,0,1-.237.408l-5.906,3.487a.481.481,0,0,1-.726-.415V65.178a.481.481,0,0,1,.738-.408l5.906,3.727a.482.482,0,0,1,.225.414" transform="translate(-96.677 -56.918)" fill="#5cabbe"/>
  </g>
</svg>
