<svg id="Group_897" data-name="Group 897" xmlns="http://www.w3.org/2000/svg" xmlns:xlink="http://www.w3.org/1999/xlink" width="30" height="30" viewBox="0 0 30 30">
  <defs>
    <filter id="Path_690">
      <feOffset dy="3" input="SourceAlpha"/>
      <feGaussianBlur stdDeviation="3" result="blur"/>
      <feFlood flood-opacity="0.161" result="color"/>
      <feComposite operator="out" in="SourceGraphic" in2="blur"/>
      <feComposite operator="in" in="color"/>
      <feComposite operator="in" in2="SourceGraphic"/>
    </filter>
  </defs>
  <g data-type="innerShadowGroup">
    <path id="Path_690-2" data-name="Path 690" d="M15.03,0H15a14.985,14.985,0,1,0,.03,0M22.5,20.39,20.39,22.5,15,17.12,9.62,22.5,7.5,20.39,12.89,15,7.5,9.62,9.62,7.5,15,12.89,20.39,7.5,22.5,9.62,17.12,15Z" fill="#530005"/>
    <g transform="matrix(1, 0, 0, 1, 0, 0)" filter="url(#Path_690)">
      <path id="Path_690-3" data-name="Path 690" d="M15.03,0H15a14.985,14.985,0,1,0,.03,0M22.5,20.39,20.39,22.5,15,17.12,9.62,22.5,7.5,20.39,12.89,15,7.5,9.62,9.62,7.5,15,12.89,20.39,7.5,22.5,9.62,17.12,15Z" fill="#fff"/>
    </g>
  </g>
</svg>
