<svg xmlns="http://www.w3.org/2000/svg" xmlns:xlink="http://www.w3.org/1999/xlink" width="26.077" height="27.373" viewBox="0 0 26.077 27.373"><defs><filter id="a" x="5.68" y="2.821" width="10.475" height="4.099" filterUnits="userSpaceOnUse"><feOffset input="SourceAlpha"/><feGaussianBlur stdDeviation="0.5" result="b"/><feFlood flood-opacity="0.161"/><feComposite operator="in" in2="b"/><feComposite in="SourceGraphic"/></filter><filter id="c" x="5.68" y="4.36" width="10.475" height="4.099" filterUnits="userSpaceOnUse"><feOffset input="SourceAlpha"/><feGaussianBlur stdDeviation="0.5" result="d"/><feFlood flood-opacity="0.161"/><feComposite operator="in" in2="d"/><feComposite in="SourceGraphic"/></filter><filter id="e" x="2.162" y="2.821" width="5.638" height="5.638" filterUnits="userSpaceOnUse"><feOffset input="SourceAlpha"/><feGaussianBlur stdDeviation="0.5" result="f"/><feFlood flood-opacity="0.161"/><feComposite operator="in" in2="f"/><feComposite in="SourceGraphic"/></filter><filter id="g" x="5.68" y="6.999" width="10.475" height="4.099" filterUnits="userSpaceOnUse"><feOffset input="SourceAlpha"/><feGaussianBlur stdDeviation="0.5" result="h"/><feFlood flood-opacity="0.161"/><feComposite operator="in" in2="h"/><feComposite in="SourceGraphic"/></filter><filter id="i" x="2.162" y="6.999" width="5.638" height="5.638" filterUnits="userSpaceOnUse"><feOffset input="SourceAlpha"/><feGaussianBlur stdDeviation="0.5" result="j"/><feFlood flood-opacity="0.161"/><feComposite operator="in" in2="j"/><feComposite in="SourceGraphic"/></filter><filter id="k" x="2.162" y="11.176" width="5.638" height="5.638" filterUnits="userSpaceOnUse"><feOffset input="SourceAlpha"/><feGaussianBlur stdDeviation="0.5" result="l"/><feFlood flood-opacity="0.161"/><feComposite operator="in" in2="l"/><feComposite in="SourceGraphic"/></filter><filter id="m" x="5.68" y="8.537" width="8.271" height="4.099" filterUnits="userSpaceOnUse"><feOffset input="SourceAlpha"/><feGaussianBlur stdDeviation="0.5" result="n"/><feFlood flood-opacity="0.161"/><feComposite operator="in" in2="n"/><feComposite in="SourceGraphic"/></filter><filter id="o" x="5.68" y="11.176" width="5.381" height="4.099" filterUnits="userSpaceOnUse"><feOffset input="SourceAlpha"/><feGaussianBlur stdDeviation="0.5" result="p"/><feFlood flood-opacity="0.161"/><feComposite operator="in" in2="p"/><feComposite in="SourceGraphic"/></filter><filter id="q" x="5.68" y="12.715" width="4.931" height="4.099" filterUnits="userSpaceOnUse"><feOffset input="SourceAlpha"/><feGaussianBlur stdDeviation="0.5" result="r"/><feFlood flood-opacity="0.161"/><feComposite operator="in" in2="r"/><feComposite in="SourceGraphic"/></filter><filter id="s" x="0" y="0" width="18.316" height="23.153" filterUnits="userSpaceOnUse"><feOffset input="SourceAlpha"/><feGaussianBlur stdDeviation="0.5" result="t"/><feFlood flood-opacity="0.161"/><feComposite operator="in" in2="t"/><feComposite in="SourceGraphic"/></filter><filter id="u" x="2.959" y="3.044" width="21.611" height="24.329" filterUnits="userSpaceOnUse"><feOffset input="SourceAlpha"/><feGaussianBlur stdDeviation="3" result="v"/><feFlood flood-opacity="0.161"/><feComposite operator="in" in2="v"/><feComposite in="SourceGraphic"/></filter><filter id="w" x="7.816" y="3.07" width="18.26" height="18.731" filterUnits="userSpaceOnUse"><feOffset input="SourceAlpha"/><feGaussianBlur stdDeviation="3" result="x"/><feFlood flood-opacity="0.161"/><feComposite operator="in" in2="x"/><feComposite in="SourceGraphic"/></filter><filter id="y" x="6.57" y="3.043" width="19.247" height="20.359" filterUnits="userSpaceOnUse"><feOffset input="SourceAlpha"/><feGaussianBlur stdDeviation="3" result="z"/><feFlood flood-opacity="0.161"/><feComposite operator="in" in2="z"/><feComposite in="SourceGraphic"/></filter></defs><g transform="translate(-903.666 -250.666)"><g transform="translate(907.328 254.988)"><g transform="matrix(1, 0, 0, 1, -3.66, -4.32)" filter="url(#a)"><rect width="7.475" height="1.099" transform="translate(7.18 4.32)" fill="#b2c9f4"/></g><g transform="matrix(1, 0, 0, 1, -3.66, -4.32)" filter="url(#c)"><rect width="7.475" height="1.099" transform="translate(7.18 5.86)" fill="#b2c9f4"/></g><g transform="matrix(1, 0, 0, 1, -3.66, -4.32)" filter="url(#e)"><rect width="2.638" height="2.638" transform="translate(3.66 4.32)" fill="#b2c9f4"/></g></g><g transform="translate(907.328 259.165)"><g transform="matrix(1, 0, 0, 1, -3.66, -8.5)" filter="url(#g)"><rect width="7.475" height="1.099" transform="translate(7.18 8.5)" fill="#b2c9f4"/></g><g transform="matrix(1, 0, 0, 1, -3.66, -8.5)" filter="url(#i)"><rect width="2.638" height="2.638" transform="translate(3.66 8.5)" fill="#b2c9f4"/></g></g><g transform="translate(907.328 263.342)"><g transform="matrix(1, 0, 0, 1, -3.66, -12.68)" filter="url(#k)"><rect width="2.638" height="2.638" transform="translate(3.66 12.68)" fill="#b2c9f4"/></g></g><g transform="translate(905.166 252.166)"><path d="M977.381,297.246a5.15,5.15,0,0,0-2.546-4.44v.746a4.511,4.511,0,0,1,0,7.39v.744A5.15,5.15,0,0,0,977.381,297.246Z" transform="translate(-959.519 -283.871)" fill="#b2c9f4"/><path d="M968.9,310.978v-.124l-.076.124Z" transform="translate(-954.827 -297.952)" fill="#b2c9f4"/><g transform="matrix(1, 0, 0, 1, -1.5, -1.5)" filter="url(#m)"><path d="M931,291v1.1h3.5a5.154,5.154,0,0,1,1.771-1.1Z" transform="translate(-923.82 -280.96)" fill="#b2c9f4"/></g><g transform="matrix(1, 0, 0, 1, -1.5, -1.5)" filter="url(#o)"><path d="M931,303v1.1h2.006a5.118,5.118,0,0,1,.375-1.1Z" transform="translate(-923.82 -290.32)" fill="#b2c9f4"/></g><g transform="matrix(1, 0, 0, 1, -1.5, -1.5)" filter="url(#q)"><path d="M932.93,310H931v1.1h1.907c-.012-.145-.02-.292-.02-.44A5.169,5.169,0,0,1,932.93,310Z" transform="translate(-923.82 -295.79)" fill="#b2c9f4"/></g><path d="M954.974,289.895h2.2v.334a4.482,4.482,0,0,1,.916.19v-.653a5.143,5.143,0,0,0-3.12.129Z" transform="translate(-944.024 -281.357)" fill="#b2c9f4"/><path d="M940.3,315h-.625a5.145,5.145,0,0,0,6.483,4.526v-.649A4.523,4.523,0,0,1,940.3,315Z" transform="translate(-932.088 -301.186)" fill="#b2c9f4"/><path d="M943.938,296h-.989a5.172,5.172,0,0,0-1.119,1.539h.7A4.56,4.56,0,0,1,943.938,296Z" transform="translate(-933.77 -286.363)" fill="#b2c9f4"/><path d="M940.5,308h-.645q-.047.217-.076.44h.633Q940.447,308.216,940.5,308Z" transform="translate(-932.171 -295.725)" fill="#b2c9f4"/><path d="M950.455,291.312c.148,0,.295.008.44.022V291h-2.2a5.153,5.153,0,0,0-1.771,1.1h.989A4.5,4.5,0,0,1,950.455,291.312Z" transform="translate(-937.74 -282.462)" fill="#b2c9f4"/><path d="M941.2,303h-.7a5.124,5.124,0,0,0-.375,1.1h.645A4.505,4.505,0,0,1,941.2,303Z" transform="translate(-932.439 -291.824)" fill="#b2c9f4"/><path d="M940.26,310h-.633a5.191,5.191,0,0,0-.044.66c0,.148.008.295.02.44h.625c-.014-.145-.022-.291-.022-.44A4.526,4.526,0,0,1,940.26,310Z" transform="translate(-932.017 -297.285)" fill="#b2c9f4"/><g transform="matrix(1, 0, 0, 1, -1.5, -1.5)" filter="url(#s)"><path d="M919.236,271.073H906.412V253.412h12.824v7.162a5.113,5.113,0,0,1,1.247.526v-8.311a.623.623,0,0,0-.623-.623h-14.07a.623.623,0,0,0-.623.623V271.7a.623.623,0,0,0,.623.623h14.07a.623.623,0,0,0,.623-.623V269.98a5.112,5.112,0,0,1-1.247.526Z" transform="translate(-903.67 -250.67)" fill="#b2c9f4"/></g><path d="M969.165,291.065a4.5,4.5,0,0,1,1.247.619v-.746a5.117,5.117,0,0,0-1.247-.526Z" transform="translate(-955.095 -282.004)" fill="#b2c9f4"/><path d="M969.165,330.433v.649a5.116,5.116,0,0,0,1.247-.526v-.743A4.511,4.511,0,0,1,969.165,330.433Z" transform="translate(-955.095 -312.742)" fill="#b2c9f4"/><path d="M955.437,310.164c-.05.084-.085.142-.094.156h-.454c-.052-.082-.12-.194-.195-.32h-.925l.193.32c-.37,0-.673-.008-.842-.017H953.1a.362.362,0,0,0-.362.379.38.38,0,0,0,.4.387c.312-.017.774-.025,1.271-.025l.031.055h1Z" transform="translate(-942.283 -297.285)" fill="#b2c9f4"/><path d="M951.533,303.151a.242.242,0,0,1,.227.126c.137.222.308.51.494.822h.932a8.158,8.158,0,0,1-.467-.881c0-.042.034-.059.109-.067a.51.51,0,0,0,.336-.151h-2.027A.477.477,0,0,0,951.533,303.151Z" transform="translate(-941.031 -291.824)" fill="#b2c9f4"/><g transform="matrix(1, 0, 0, 1, -1.5, -1.5)" filter="url(#u)"><path d="M956.083,300.125a.4.4,0,0,0-.437.4.4.4,0,0,0,.412.387c.109.008.185.025.185.092a16.445,16.445,0,0,1-.807,1.46v.935h-1l.154.273a.435.435,0,0,1,.084.295c-.673,0-1.279-.009-1.557-.017H953.1a.365.365,0,0,0-.362.387.369.369,0,0,0,.4.387c.37-.017.934-.017,1.549-.017v.724a.172.172,0,0,1-.177.194l-.084.008h-.033a.388.388,0,0,0-.4.4.4.4,0,0,0,.4.421h.033c.185-.009.455-.017.732-.017.227,0,.463.008.657.017h.025a.413.413,0,1,0-.025-.825l-.093-.008c-.126,0-.177-.068-.177-.185v-.724c.279,0,.552.007.808.007v-.762c-.235,0-.508.005-.8.005a.526.526,0,0,1,.084-.337c.051-.084.109-.177.177-.278l.538.008v-.749h-.076l.076-.124v-2.348l-.235-.01Z" transform="translate(-940.78 -288.08)" fill="#b2c9f4"/></g><path d="M953.033,300.487a.376.376,0,0,0-.421-.362h-.025c-.21.008-.48.017-.732.017-.21,0-.421-.009-.581-.017h-.033a.4.4,0,0,0-.412.4.368.368,0,0,0,.068.228h2.027A.4.4,0,0,0,953.033,300.487Z" transform="translate(-940.789 -289.581)" fill="#b2c9f4"/><path d="M956.479,308.44h.925c-.08-.135-.169-.287-.256-.44h-.932Z" transform="translate(-944.993 -295.725)" fill="#b2c9f4"/><g transform="matrix(1, 0, 0, 1, -1.5, -1.5)" filter="url(#w)"><path d="M975.1,300.624a.364.364,0,0,0-.26-.377v.731A.368.368,0,0,0,975.1,300.624Z" transform="translate(-958.02 -288.18)" fill="#b2c9f4"/></g><path d="M969.746,312.146h.008a.377.377,0,0,0,.4-.387.371.371,0,0,0-.4-.379h-.008c-.13,0-.337.007-.581.008v.749Z" transform="translate(-955.095 -298.362)" fill="#b2c9f4"/><g transform="matrix(1, 0, 0, 1, -1.5, -1.5)" filter="url(#y)"><path d="M970.023,301.033a.259.259,0,0,1,.21-.126h.026a.484.484,0,0,0,.152-.025v-.731a.562.562,0,0,0-.194-.027c-.21.008-.471.017-.724.017-.112,0-.223,0-.328-.007v2.348C969.485,301.955,969.805,301.407,970.023,301.033Z" transform="translate(-953.6 -288.08)" fill="#b2c9f4"/></g><path d="M969.746,318.28a.38.38,0,0,0,.4-.387.37.37,0,0,0-.387-.387h-.017c-.141,0-.341.009-.581.012v.762Z" transform="translate(-955.095 -303.141)" fill="#b2c9f4"/></g></g></svg>