<svg xmlns="http://www.w3.org/2000/svg" width="175.336" height="36.914" viewBox="0 0 175.336 36.914">
  <g id="グループ_9868" data-name="グループ 9868" transform="translate(9869 11177.664)">
    <g id="グループ_9866" data-name="グループ 9866" transform="translate(-9869 -11177.664)">
      <rect id="長方形_6890" data-name="長方形 6890" width="15.64" height="6.842" transform="matrix(0.707, -0.707, 0.707, 0.707, 12.442, 11.059)" fill="#facd89"/>
      <rect id="長方形_6891" data-name="長方形 6891" width="15.64" height="6.842" transform="translate(6.221 29.723) rotate(-45.001)" fill="#facd89"/>
      <rect id="長方形_6892" data-name="長方形 6892" width="6.843" height="6.843" transform="matrix(0.707, -0.707, 0.707, 0.707, 24.884, 11.06)" fill="#facd89"/>
      <rect id="長方形_6894" data-name="長方形 6894" width="6.843" height="6.842" transform="matrix(0.707, -0.707, 0.707, 0.707, 0, 23.503)" fill="#facd89"/>
    </g>
    <g id="グループ_9867" data-name="グループ 9867" transform="translate(-9825.911 -11175.59)">
      <path id="パス_9997" data-name="パス 9997" d="M178.513,29.49l-1.485-3.033h-1.068V29.49h-1.485v-7.6h2.98a2.3,2.3,0,0,1,2.467,2.328,2.047,2.047,0,0,1-1.388,2l1.7,3.278Zm-1.154-6.279h-1.4v2.008h1.4a1.007,1.007,0,1,0,0-2.008Z" transform="translate(-174.476 -21.887)" fill="#fff"/>
      <path id="パス_9998" data-name="パス 9998" d="M199.408,45.875V44.294H201v1.581Z" transform="translate(-192.706 -38.271)" fill="#fff"/>
      <path id="パス_9999" data-name="パス 9999" d="M210.48,29.49v-7.6h5.009v1.324h-3.524v1.783h3v1.324h-3v1.847h3.524V29.49Z" transform="translate(-200.802 -21.887)" fill="#fff"/>
      <path id="パス_10000" data-name="パス 10000" d="M233.753,45.875V44.294h1.591v1.581Z" transform="translate(-217.819 -38.271)" fill="#fff"/>
      <path id="パス_10001" data-name="パス 10001" d="M248.1,29.49l-.449-1.346h-2.7l-.459,1.346H242.94l2.766-7.6h1.164l2.776,7.6Zm-1.772-5.361-.962,2.766h1.89Z" transform="translate(-224.537 -21.887)" fill="#fff"/>
      <path id="パス_10002" data-name="パス 10002" d="M271.155,45.875V44.294h1.591v1.581Z" transform="translate(-245.168 -38.271)" fill="#fff"/>
      <path id="パス_10003" data-name="パス 10003" d="M282.228,29.49v-7.6h1.485v6.279h3.449V29.49Z" transform="translate(-253.264 -21.887)" fill="#fff"/>
      <path id="パス_10004" data-name="パス 10004" d="M305.223,45.875V44.294h1.591v1.581Z" transform="translate(-270.078 -38.271)" fill="#fff"/>
    </g>
    <g id="グループ_9865" data-name="グループ 9865" transform="translate(-9869 -11177.664)">
      <rect id="長方形_6893" data-name="長方形 6893" width="6.842" height="6.842" transform="matrix(0.707, -0.707, 0.707, 0.707, 6.221, 4.839)" fill="#f39800"/>
      <rect id="長方形_6895" data-name="長方形 6895" width="6.843" height="6.843" transform="translate(18.663 29.723) rotate(-45.001)" fill="#f39800"/>
      <rect id="長方形_6896" data-name="長方形 6896" width="6.843" height="15.641" transform="translate(18.663 17.281) rotate(-45.001)" fill="#f39800"/>
      <rect id="長方形_6897" data-name="長方形 6897" width="6.843" height="15.641" transform="translate(0 11.059) rotate(-45)" fill="#f39800"/>
      <path id="パス_10005" data-name="パス 10005" d="M185.021,75.525a5,5,0,1,1,0,9.975h-3.078v6.021H178.82v-16Zm-3.078,2.786v4.4h2.92a2.2,2.2,0,1,0,0-4.4Z" transform="translate(-134.563 -59.033)" fill="#f39800"/>
      <path id="パス_10006" data-name="パス 10006" d="M235.751,75.525a5,5,0,1,1,0,9.975h-3.078v6.021H229.55v-16Zm-3.078,2.786v4.4h2.921a2.2,2.2,0,1,0,0-4.4Z" transform="translate(-171.657 -59.033)" fill="#f39800"/>
      <path id="パス_10007" data-name="パス 10007" d="M284.231,91.521h-3.28l-.943-2.831h-5.662l-.966,2.831H270.1l5.841-16h2.449Zm-9.032-5.46h3.932l-1.955-5.8Z" transform="translate(-201.306 -59.033)" fill="#f39800"/>
      <path id="パス_10008" data-name="パス 10008" d="M363.819,91.521H360.7v-9.3L357.641,87.9h-2.112l-3.078-5.684v9.3h-3.123v-16h3.078l4.179,8.29,4.156-8.29h3.078Z" transform="translate(-259.239 -59.033)" fill="#f39800"/>
      <path id="パス_10009" data-name="パス 10009" d="M420.864,95.122v7.706h-2.853v-1.011a3.557,3.557,0,0,1-2.876,1.123,4.048,4.048,0,0,1-2.988-1.034,3.751,3.751,0,0,1-.966-2.629c0-1.865,1.281-3.393,4.044-3.393h2.719V95.3c0-1.281-.629-1.842-2.179-1.842a2.589,2.589,0,0,0-2.247,1.011l-1.842-1.82a4.9,4.9,0,0,1,4.2-1.662C419.179,90.988,420.864,92.381,420.864,95.122Zm-5.145,2.764c-1.168,0-1.73.472-1.73,1.348,0,.809.562,1.325,1.775,1.325a2.224,2.224,0,0,0,1.73-.562,1.811,1.811,0,0,0,.449-1.483v-.629Z" transform="translate(-304.466 -70.34)" fill="#f39800"/>
      <path id="パス_10010" data-name="パス 10010" d="M465.6,92.021a4.368,4.368,0,0,1,1.191,3.325v7.481H463.87V95.751a1.952,1.952,0,1,0-3.887,0v7.077h-2.921V91.123h2.854V92.2a4,4,0,0,1,2.921-1.213A3.711,3.711,0,0,1,465.6,92.021Z" transform="translate(-338.015 -70.34)" fill="#f39800"/>
      <path id="パス_10011" data-name="パス 10011" d="M509.821,95.122v7.706h-2.853v-1.011a3.557,3.557,0,0,1-2.876,1.123,4.049,4.049,0,0,1-2.988-1.034,3.751,3.751,0,0,1-.966-2.629c0-1.865,1.281-3.393,4.044-3.393H506.9V95.3c0-1.281-.629-1.842-2.179-1.842a2.59,2.59,0,0,0-2.247,1.011l-1.842-1.82a4.9,4.9,0,0,1,4.2-1.662C508.136,90.988,509.821,92.381,509.821,95.122Zm-5.145,2.764c-1.168,0-1.73.472-1.73,1.348,0,.809.562,1.325,1.775,1.325a2.225,2.225,0,0,0,1.73-.562,1.812,1.812,0,0,0,.449-1.483v-.629Z" transform="translate(-369.511 -70.34)" fill="#f39800"/>
      <path id="パス_10012" data-name="パス 10012" d="M551.219,92.224v-1.1h2.831V102.4c0,2.808-1.977,4.853-5.145,4.853a5.473,5.473,0,0,1-4.246-1.528l1.842-1.842a2.949,2.949,0,0,0,2.292.9,2.185,2.185,0,0,0,2.336-2.426v-1.191a3.4,3.4,0,0,1-2.786,1.168,3.839,3.839,0,0,1-2.763-1.033c-1.1-1.1-1.213-2.584-1.213-4.651,0-2.044.112-3.527,1.213-4.628a3.856,3.856,0,0,1,2.786-1.033A3.426,3.426,0,0,1,551.219,92.224Zm-3.931,4.425c0,1.55.18,3.056,1.932,3.056,1.73,0,1.91-1.505,1.91-3.056,0-1.528-.18-3.033-1.91-3.033C547.467,93.616,547.287,95.122,547.287,96.649Z" transform="translate(-401.852 -70.34)" fill="#f39800"/>
      <path id="パス_10013" data-name="パス 10013" d="M598.734,96.649v1.236H591.41a2.4,2.4,0,0,0,2.561,2.606,3.229,3.229,0,0,0,2.629-1.1l1.8,1.73a5.5,5.5,0,0,1-4.448,1.842c-2.786,0-5.415-1.258-5.415-6,0-3.819,2.067-5.976,5.1-5.976C596.892,90.988,598.734,93.324,598.734,96.649Zm-7.077-2.022a2.861,2.861,0,0,0-.247,1.258h4.426a2.864,2.864,0,0,0-.247-1.258,2.2,2.2,0,0,0-3.932,0Z" transform="translate(-434.147 -70.34)" fill="#f39800"/>
      <path id="パス_10014" data-name="パス 10014" d="M643.186,92.089l-2.179,2.224a1.967,1.967,0,0,0-3.46,1.46v7.055h-2.921V91.123h2.853v1.123a3.963,3.963,0,0,1,2.943-1.258A3.428,3.428,0,0,1,643.186,92.089Z" transform="translate(-467.849 -70.34)" fill="#f39800"/>
    </g>
  </g>
</svg>
