<svg xmlns="http://www.w3.org/2000/svg" xmlns:xlink="http://www.w3.org/1999/xlink" width="32" height="32" viewBox="0 0 32 32">
  <defs>
    <filter id="Path_688">
      <feOffset dy="3" input="SourceAlpha"/>
      <feGaussianBlur stdDeviation="3" result="blur"/>
      <feFlood flood-opacity="0.161" result="color"/>
      <feComposite operator="out" in="SourceGraphic" in2="blur"/>
      <feComposite operator="in" in="color"/>
      <feComposite operator="in" in2="SourceGraphic"/>
    </filter>
  </defs>
  <g id="Group_1028" data-name="Group 1028" transform="translate(-33 -24)">
    <rect id="Rectangle_1639" data-name="Rectangle 1639" width="32" height="32" transform="translate(33 24)" fill="none"/>
    <g id="Group_912" data-name="Group 912" transform="translate(34 25)">
      <g data-type="innerShadowGroup">
        <path id="Path_688-2" data-name="Path 688" d="M25.6,4.4A15,15,0,1,0,30,15,14.923,14.923,0,0,0,25.6,4.4M22.552,15.9a1.523,1.523,0,0,1-.559.559v-.01L11.348,22.562a1.459,1.459,0,0,1-1.976-.569,1.655,1.655,0,0,1-.186-.7V8.71a1.464,1.464,0,0,1,1.469-1.448,1.5,1.5,0,0,1,.693.176l10.645,6.476a1.459,1.459,0,0,1,.559,1.986" transform="translate(0 0)" fill="#3b6872"/>
        <g transform="matrix(1, 0, 0, 1, -1, -1)" filter="url(#Path_688)">
          <path id="Path_688-3" data-name="Path 688" d="M25.6,4.4A15,15,0,1,0,30,15,14.923,14.923,0,0,0,25.6,4.4M22.552,15.9a1.523,1.523,0,0,1-.559.559v-.01L11.348,22.562a1.459,1.459,0,0,1-1.976-.569,1.655,1.655,0,0,1-.186-.7V8.71a1.464,1.464,0,0,1,1.469-1.448,1.5,1.5,0,0,1,.693.176l10.645,6.476a1.459,1.459,0,0,1,.559,1.986" transform="translate(1 1)" fill="#fff"/>
        </g>
      </g>
    </g>
  </g>
</svg>
